<svg data-name="Layer 1" id="Layer_1" viewBox="0 0 239.53 239.53" xmlns="http://www.w3.org/2000/svg">
    <path
        d="M0,188.07V21.52c.32-.37.8-.69.93-1.11Q5.39,5.37,20.41.93c.42-.13.74-.61,1.11-.93H148.3a5.54,5.54,0,0,0,1.34,1c12.54,3.81,19.77,13.77,20.06,26.24.44,18.6.11,37.22.13,55.83,0,1.48-.55,2.13-2.06,2.1-6.89-.11-13.54,1.4-20.12,3.24-2.6.73-5.18,1.58-7.77,2.37-.08-6.43-4.48-11.41-11.53-10.84-1.7.14-3.42,0-5.14,0-27.66,0-55.32.09-83-.07-5.48,0-10.58,4.82-10.31,10.35a10,10,0,0,0,10.4,9.48q39.63,0,79.25,0c1,0,2,.1,3,.16a13.61,13.61,0,0,1-1.41,1.43,93.39,93.39,0,0,0-18.13,17.56c-1.49,1.92-3.13,3.73-4.69,5.59-2-2.61-4.5-4.65-8-4.66-17,0-33.95-.09-50.93,0a9.83,9.83,0,0,0-9.51,9.9c0,5.79,4.55,10.09,10.83,10.11l50,.07c-.44,1.39-.89,2.79-1.32,4.19-3.3,10.82-5.29,21.75-4.38,33.18a94.23,94.23,0,0,0,4,21.89c1.12,3.43,2.52,6.77,3.86,10.33-.88,0-1.56.11-2.25.11H26.2a9.84,9.84,0,0,1-1.63-.06c-11.88-2-19.94-8.46-23.59-20.12A5.54,5.54,0,0,0,0,188.07ZM59.73,59.88H79.14c6.19,0,10.66-4.18,10.68-10S85.32,39.85,79.2,39.84q-19.29-.06-38.58,0c-6.14,0-10.68,4.33-10.68,10s4.46,10,10.62,10C47,59.9,53.34,59.88,59.73,59.88Z"
        fill="#ebeef0" />
    <path
        d="M139.88,90.76c-1.08.56-2.16,1.12-3.23,1.69-3.86,2.09-7.71,4.19-11.57,6.26-.81.44-1.66.78-2.49,1.17-1-.06-2-.16-3-.16q-39.63,0-79.25,0a10,10,0,0,1-10.4-9.48c-.27-5.53,4.83-10.38,10.31-10.35,27.66.16,55.32.07,83,.07,1.72,0,3.44.12,5.14,0C135.4,79.35,139.8,84.33,139.88,90.76Z"
        fill="#90a4ad" />
    <path
        d="M98.36,124.46a5.6,5.6,0,0,1-.29,1.56c-2.21,4.4-4.46,8.79-6.71,13.17a4.37,4.37,0,0,1-.6.7l-50-.07c-6.28,0-10.86-4.32-10.83-10.11a9.83,9.83,0,0,1,9.51-9.9c17-.1,34-.06,50.93,0C93.86,119.81,96.32,121.85,98.36,124.46Z"
        fill="#90a4ae" />
    <path d="M59.73,59.88c-6.39,0-12.78,0-19.17,0-6.16,0-10.61-4.23-10.62-10s4.54-10,10.68-10q19.29,0,38.58,0c6.12,0,10.65,4.37,10.62,10.09s-4.49,9.94-10.68,10Z"
        fill="#90a4ae" />
    <path
        d="M172.12,239.53a67.37,67.37,0,1,1,67.41-67.39A67.47,67.47,0,0,1,172.12,239.53Zm10-77.28c0-6.06.06-11.73,0-17.41a9.91,9.91,0,1,0-19.82,0c-.07,4.91,0,9.82,0,14.73,0,.83-.07,1.66-.12,2.69-5.91,0-11.59-.06-17.26,0a9.91,9.91,0,1,0,0,19.82c4.91.08,9.82,0,14.73,0,.82,0,1.65.07,2.69.12,0,5.91-.05,11.58,0,17.25a9.91,9.91,0,1,0,19.82,0c.08-4.91,0-9.82,0-14.73,0-.82.07-1.65.12-2.68H185c5,0,10,.06,15,0a9.74,9.74,0,0,0,9.13-6.78,9.85,9.85,0,0,0-9.12-13C194.14,162.14,188.3,162.25,182.09,162.25Z"
        fill="#2296f2" />
    <path
        d="M182.09,162.25c6.21,0,12-.11,17.87,0a9.85,9.85,0,0,1,9.12,13,9.74,9.74,0,0,1-9.13,6.78c-5,.1-10,0-15,0h-2.76c-.05,1-.12,1.86-.12,2.68,0,4.91.05,9.82,0,14.73a9.91,9.91,0,1,1-19.82,0c-.06-5.67,0-11.34,0-17.25-1-.05-1.87-.12-2.69-.12-4.91,0-9.82.05-14.73,0a9.91,9.91,0,1,1,0-19.82c5.67-.07,11.35,0,17.26,0,0-1,.12-1.86.12-2.69,0-4.91,0-9.82,0-14.73a9.91,9.91,0,1,1,19.82,0C182.15,150.52,182.09,156.19,182.09,162.25Z"
        fill="#fdfefe" />
</svg>