<svg data-name="Layer 1" id="Layer_1" viewBox="0 0 208.01 212.91" xmlns="http://www.w3.org/2000/svg">
    <path
        d="M42.31,103.86c5-3.37,10.24-6.41,14.87-10.2A147.13,147.13,0,0,0,71.12,80.24a90.06,90.06,0,0,0,9.26-11.69A87.83,87.83,0,0,0,91.55,45.42a4,4,0,0,1,.55-.86c2.31,3.86,4.68,7.69,6.94,11.59C105.2,66.76,111.3,77.4,117.43,88q8.47,14.7,16.95,29.39c3.07,5.35,6.05,10.74,9.08,16.12a3.75,3.75,0,0,1-1.16.21c-4.15-.58-8.28-1.52-12.45-1.73a108.78,108.78,0,0,0-30.3,2.43c-11.41,2.63-21.85,7.57-32.19,12.8-3.55-6.09-7.12-12.17-10.64-18.27C51.89,120.61,47.11,112.23,42.31,103.86Z"
        fill="#f4f3f3" />
    <path
        d="M42.31,103.86c4.8,8.37,9.58,16.75,14.41,25.11,3.52,6.1,7.09,12.18,10.64,18.27a1.84,1.84,0,0,0,.06.47,25.15,25.15,0,0,0-3.14,1.35c-11,6.64-22.46,12.36-35,15.27-7.42,1.72-14.94,2.18-21.54-3-1.5-1.18-3.19-2.12-4.79-3.17L3,158l-.62-1.13c-4.95-10.7-1.82-20.51,7.2-29.69,8.76-8.91,19.21-15.46,29.84-21.77C40.33,104.84,41.33,104.37,42.31,103.86Z"
        fill="#ee5350" />
    <path
        d="M143.46,133.53c-3-5.38-6-10.77-9.08-16.12Q125.94,102.7,117.43,88C111.3,77.4,105.2,66.76,99,56.15c-2.26-3.9-4.63-7.73-6.94-11.59-1-2.68-2.16-5.27-1.1-8.28,1.42-4,4.16-6.45,8.31-7,4.42-.58,7.61,1.65,9.73,5.29,8.17,14,16.24,28.08,24.36,42.12q12.38,21.41,24.78,42.78c1.33,2.31,2.57,4.68,3.85,7a6.12,6.12,0,0,0,0,1,9.15,9.15,0,0,1-3.21,9.35,9.47,9.47,0,0,1-9.61,1.89,34.1,34.1,0,0,1-3.24-1.53Z"
        fill="#ee5350" />
    <path
        d="M76.82,176.14c3.86,5.24,7.67,10.52,11.61,15.7,1.8,2.35,4.6,2.76,7.24,1.39,3.78-2,8-.78,9.88,2.73a7.3,7.3,0,0,1-3.13,10c-2.74,1.5-5.5,3-8.16,4.61a14.94,14.94,0,0,1-20.63-4.66,109.21,109.21,0,0,0-21.26-24.28c5.8-2.8,11.61-5.57,17.38-8.42a13.82,13.82,0,0,0,2.38-1.92Z"
        fill="#419ffe" />
    <path
        d="M143.46,133.53c.84,1.24,1.69,2.48,2.53,3.73l3.71,6.87a107.55,107.55,0,0,0-26.9-2.07,106.74,106.74,0,0,0-27.92,5.71c-2.39.82-4.74,1.78-7.06,2.8-.63.28-1.07,1-1.6,1.51a42.08,42.08,0,0,0-4.88,1.42c-2.82,1.18-5.55,2.57-8.32,3.87q-2.79-4.83-5.6-9.66a1.84,1.84,0,0,1-.06-.47c10.34-5.23,20.78-10.17,32.19-12.8a108.78,108.78,0,0,1,30.3-2.43c4.17.21,8.3,1.15,12.45,1.73A3.75,3.75,0,0,0,143.46,133.53Z"
        fill="#dfdfdf" />
    <path
        d="M67.42,147.71q2.81,4.83,5.6,9.66a29.34,29.34,0,0,1-2.58,2c-2.29,1.43-4.64,2.78-7,4.16-2.35,1.08-4.67,2.28-7.08,3.24-6.42,2.57-12.89,5-19.34,7.55-5.28.95-10.56,2.06-15.94.78-7.27-1.73-12.29-6.35-15.91-12.69-.81-1.42-1.53-2.88-2.3-4.32,1.6,1.05,3.29,2,4.79,3.17,6.6,5.2,14.12,4.74,21.54,3,12.58-2.91,24-8.63,35-15.27A25.15,25.15,0,0,1,67.42,147.71Z"
        fill="#d34b48" />
    <path
        d="M63.48,163.58c2.32-1.38,4.67-2.73,7-4.16a29.34,29.34,0,0,0,2.58-2c2.77-1.3,5.5-2.69,8.32-3.87a42.08,42.08,0,0,1,4.88-1.42c1.92,4.29,2.68,8.75.71,13.15a24.57,24.57,0,0,1-10.11,10.91l-4.69-4.82Z"
        fill="#ee5451" />
    <path
        d="M63.48,163.58l8.65,7.74a13.82,13.82,0,0,1-2.38,1.92c-5.77,2.85-11.58,5.62-17.38,8.42a72.52,72.52,0,0,0-6.46-3.82c-2.87-1.33-5.89-2.33-8.85-3.47,6.45-2.51,12.92-5,19.34-7.55C58.81,165.86,61.13,164.66,63.48,163.58Z"
        fill="#3b8fe5" />
    <path
        d="M149.7,144.13,146,137.26a34.1,34.1,0,0,0,3.24,1.53,9.47,9.47,0,0,0,9.61-1.89,9.15,9.15,0,0,0,3.21-9.35,6.12,6.12,0,0,1,0-1c1.78,3.15,3.71,6.23,5.3,9.47a9.25,9.25,0,0,1-4.07,12.22c-4,2.17-9.41,1.75-12.45-2.62C150.47,145.07,150.07,144.61,149.7,144.13Z"
        fill="#d44b48" />
    <path
        d="M134.33,2.52c-1.16,4.44-2.15,8.29-3.19,12.14-1.35,5-2.76,10-4.09,15-.5,1.86-1.6,2.92-3.54,2.62-2.1-.31-2.75-1.89-2.27-3.71C123.57,19.75,126,11,128.39,2.13a2.47,2.47,0,0,1,3.37-2C132.85.55,133.63,1.84,134.33,2.52Z"
        fill="#3c4d54" />
    <path
        d="M176.73,64.51a5.19,5.19,0,0,1-1.37,1.69c-7.67,4.51-15.38,8.93-23.1,13.36-1.72,1-3.36,1.19-4.62-.79s0-3.34,1.54-4.22c7.67-4.44,15.37-8.84,23.12-13.13C174.67,60.1,176.87,61.44,176.73,64.51Z"
        fill="#37474f" />
    <path
        d="M205.67,134.28c-3.84-1.05-7-2-10.21-2.8-5.63-1.5-11.31-2.86-16.9-4.51a4.68,4.68,0,0,1-2.69-2.65c-.25-.74.8-2,1.51-2.9.29-.35,1.26-.35,1.84-.2q13.26,3.42,26.47,7c1.56.42,2.76,1.57,2.17,3.28C207.48,132.58,206.37,133.43,205.67,134.28Z"
        fill="#37474f" />
    <path d="M2.34,156.87,3,158Z" fill="#d34b48" />
</svg>