<svg data-name="Layer 1" id="Layer_1" viewBox="0 0 232.49 217.11" xmlns="http://www.w3.org/2000/svg">
    <path
        d="M0,38.64a11.91,11.91,0,0,0,.87-1.5C3.37,31,8,27.53,14.58,27.42c11.19-.19,22.38,0,33.57,0,0,4.5,0,9-.06,13.5a11.81,11.81,0,0,1-.49,2.3c-1.23-.45-2.45-1.26-3.7-1.3-5.12-.15-10.25-.08-15.38,0-2.65,0-4.11,1.25-4.15,3.42s1.29,3.43,4,3.44c5.13,0,10.26-.06,15.38,0A4.44,4.44,0,0,0,48,46.65l0,17.56c-1.1-.68-2.17-1.92-3.29-2-5.65-.2-11.32-.1-17-.09a3.12,3.12,0,0,0-3.31,2.51C23.79,67,25.5,69,28.24,69c5.06.06,10.12.11,15.17,0,1.4,0,2.78-.84,4.17-1.29.14.17.41.34.41.51,0,5,0,9.93,0,14.9,0,.17-.26.34-.4.51-1.24-.45-2.46-1.25-3.71-1.28-5.13-.15-10.27-.08-15.4-.06-2.51,0-4.18,1.41-4.23,3.45s1.52,3.41,4.15,3.42c5.13,0,10.27,0,15.4,0a4.45,4.45,0,0,0,4.2-2.1v17.56c-1.1-.68-2.17-1.91-3.29-1.95-5.66-.2-11.33-.22-17,0A4.57,4.57,0,0,0,24.56,105c-1.09,2.22.86,4.46,3.71,4.49,5.05,0,10.11.11,15.17,0,1.39,0,2.77-.84,4.15-1.29a11.94,11.94,0,0,1,.5,2.31c0,5.6,0,11.19,0,16.78l-3.61,0-22.31.32c-4.05-.6-8.13-.91-12,.61a8.62,8.62,0,0,0-5.62,7.37c-.44,3.81.43,7.21,3.86,9.52,4.07,2.73,8.5,1.69,12.87,1.28,1.57.16,3.13.43,4.69.45,7.39.06,14.77,0,22.16.06q-.09,8-.17,15.93a4.45,4.45,0,0,0-4.21-2.07c-5.05.09-10.12,0-15.18,0-2.72,0-4.26,1.18-4.33,3.24-.08,2.25,1.59,3.62,4.47,3.63,4.91,0,9.82.1,14.73-.06,1.4-.05,2.77-.85,4.15-1.31a9.28,9.28,0,0,1,.48,2.09q0,14.88,0,29.77l-13.16.15c-6,0-12.06-.1-18.09-.12-8.58,0-13.19-3.18-16.34-11.22a3,3,0,0,0-.5-.68ZM11.34,105.8a3.49,3.49,0,0,0,3.19,3.64,4.35,4.35,0,0,0,3.56-3.31,3.43,3.43,0,0,0-3.43-3.47A3,3,0,0,0,11.34,105.8Zm0-40.21A3.49,3.49,0,0,0,14.51,69c1.56,0,3.64-2,3.58-3.52a3.45,3.45,0,0,0-3.64-3.27C12.45,62.28,11.35,63.46,11.34,65.59Zm0,98.53a3.5,3.5,0,0,0,3.17,3.45c1.56,0,3.63-2,3.58-3.52a3.45,3.45,0,0,0-3.63-3.27C12.46,160.82,11.35,162,11.34,164.12Zm0-119c0,2.22,1.13,3.49,3.21,3.48a3.46,3.46,0,0,0,3.55-3.37c0-1.39-2-3.35-3.46-3.42A3.49,3.49,0,0,0,11.34,45.15Zm0,40.45c0,2.22,1.14,3.47,3.24,3.44a3.45,3.45,0,0,0,3.52-3.39c0-1.4-2-3.35-3.49-3.39A3.47,3.47,0,0,0,11.34,85.6Z"
        fill="#30dce4" />
    <path
        d="M48.15,146.83c-7.39,0-14.77,0-22.16-.06-1.56,0-3.12-.29-4.69-.45-4.4-2-6.88-5.49-6.71-9.49.2-4.42,2.75-7.54,7.61-9.29l22.31-.32,3.61,0h10v-2.93q0-37.73,0-75.45c0-7,0-14-.06-21.07a.61.61,0,0,0,0-.44l114.45,0c0,6.2,0,12.39.11,18.58.07,8.13,5.42,13.63,13.54,13.93,1.51.06,3,.08,4.52.12q0,71.21,0,142.4a14.3,14.3,0,0,1-2.36,7.86c-2.26,3.57-5.71,5.44-9.47,6.92q-64.34,0-128.67,0c-7.42,0-14.33-6.31-14.8-13.49-.12-1.8-.31-3.59-.47-5.39l13.16-.15h9.84a5.4,5.4,0,0,0,.17-.86q0-25-.05-50.05l-.4-.37Zm70.36-26.5c2.87,0,5.74.09,8.6,0a5.65,5.65,0,0,0,5.84-5.66c.12-2.86.13-5.74,0-8.61a5.73,5.73,0,0,0-6.06-5.69c-2.65,0-5.29,0-7.93,0-11.79,0-23.57-.06-35.36,0a5.65,5.65,0,0,0-5.88,5.67c-.13,2.87-.13,5.75,0,8.61a5.6,5.6,0,0,0,5.87,5.64C95.24,120.39,106.87,120.35,118.51,120.33Zm-.45-31.42c3,0,6,.16,9.07.07A5.87,5.87,0,0,0,133,83c.08-2.72.08-5.45,0-8.17A5.65,5.65,0,0,0,127.34,69c-2.94-.12-5.89,0-8.84,0-11.7,0-23.4,0-35.1,0-3.34,0-5.54,2.31-5.67,5.8-.1,2.49,0,5,0,7.48,0,4.3,2.28,6.62,6.58,6.63C95.55,89,106.81,88.92,118.06,88.91Zm50.86,31.4c3.1,0,6.19.11,9.28,0a5.56,5.56,0,0,0,5.65-5.79q0-19.93,0-39.86a5.51,5.51,0,0,0-5.7-5.73c-2.94-.07-5.88,0-8.83,0-4.3,0-8.6,0-12.9,0-3.51,0-5.73,2.15-5.74,5.62q-.06,20.06,0,40.1a5.39,5.39,0,0,0,5.57,5.61C160.47,120.42,164.69,120.33,168.92,120.31Zm-62,77.81h12.92c4.31,0,8.62,0,12.93,0,2.24,0,3.46-1.29,3.48-3.32a3.4,3.4,0,0,0-3.37-3.52,10.84,10.84,0,0,0-1.14,0H82.53c-3.06,0-4.54,1.19-4.51,3.54s1.38,3.35,4.4,3.35Q94.66,198.14,106.91,198.12ZM181,154.76c0-2.37-1.36-3.93-3.43-4s-3.48,1.37-3.66,3.76c0,.22,0,.45,0,.68-.21,4.94-2.61,7.47-7.54,7.84-2.78.21-5.58.27-8.36.43a14.37,14.37,0,0,0-12.78,8.37c-1.16,2.3-.68,4.22,1.21,5.26s3.72.36,4.94-2.05c1.71-3.37,4.52-4.64,8.11-4.75a82.78,82.78,0,0,0,8.35-.47C177,168.63,180.66,163,181,154.76Zm-98.55,7.61c0,5.9,0,11.8,0,17.7,0,2.67,1.23,4.21,3.31,4.29s3.59-1.58,3.59-4.29q0-17.35,0-34.71c0-2.74-1.36-4.41-3.5-4.43s-3.4,1.62-3.41,4.42C82.47,151,82.48,156.7,82.48,162.37Zm82.23,35.75c5.36,0,10.72,0,16.08,0,2.75,0,4.08-1.18,4.08-3.42s-1.45-3.46-4.12-3.46q-15.85,0-31.7,0c-2.74,0-4.29,1.36-4.24,3.6s1.54,3.27,4.27,3.28C154.29,198.13,159.5,198.12,164.71,198.12Zm-55.43-31.43c0,4.46,0,8.91,0,13.37,0,2.74,1.38,4.37,3.52,4.3s3.38-1.64,3.38-4.25q0-13.49,0-27c0-2.78-1.31-4.29-3.57-4.25s-3.32,1.45-3.34,4.2C109.27,157.63,109.28,162.16,109.28,166.69Zm20.3,5.67c0-2.86.06-5.73,0-8.59-.06-2.39-1.51-3.91-3.51-3.87s-3.41,1.56-3.43,4q-.06,8.25,0,16.5c0,2.41,1.4,3.94,3.41,4s3.46-1.48,3.53-3.86C129.64,177.79,129.58,175.08,129.58,172.36ZM89.68,48.7c2.64,0,5.29,0,7.93,0,2.28,0,3.67-1.38,3.66-3.41s-1.39-3.41-3.68-3.43q-7.82-.09-15.63,0a3.31,3.31,0,0,0-3.53,3.57c.07,2,1.27,3.2,3.55,3.26C84.54,48.75,87.11,48.7,89.68,48.7Zm13,126.68h0c0-2,0-3.91,0-5.87a3.26,3.26,0,0,0-3.12-3.5,3.37,3.37,0,0,0-3.68,3.21q-.19,6,0,12a3.36,3.36,0,0,0,3.49,3.16,3.39,3.39,0,0,0,3.3-3.33C102.74,179.15,102.68,177.26,102.68,175.38Zm-3.29-17.81a3.37,3.37,0,0,0,3.25-3.56,3.22,3.22,0,0,0-3.33-3.23,3.46,3.46,0,0,0-3.45,3.42A3.52,3.52,0,0,0,99.39,157.57Z"
        fill="#ebf4f9" />
    <path
        d="M190.69,59.91c-1.51,0-3-.06-4.52-.12-8.12-.3-13.47-5.8-13.54-13.93-.06-6.19-.08-12.38-.11-18.58q0-6.57.1-13.15C172.68,5.46,178.15,0,186.84,0q12.36,0,24.72,0c.67.33,1.33.67,2,1,5.48,2.44,8.05,6.65,8,12.65-.07,11.16,0,22.33,0,33.49a10.38,10.38,0,0,1-3.46,8.27c-1.9,1.61-4,2.93-6.07,4.38l-11.37.1Zm8.6-48.56a8.35,8.35,0,0,0-5.67,8.14c-.07,4,1.95,6.83,5.62,8.45l.78.56-.77.42c-7.19,1.59-11.92,5.89-14,12.95-1,3.53-.08,4.75,3.66,4.76,7.39,0,14.79,0,22.19,0,2,0,4.07.16,6.1.11,2.45-.07,3.54-1.45,3-3.88-1.48-6.73-5.61-11.15-12.07-13.44-1-.35-2-.61-3.2-1C210.69,26,213,21,210.87,16A8.77,8.77,0,0,0,199.29,11.35Z"
        fill="#037397" />
    <path
        d="M190.69,59.91h10q0,70.93,0,141.88a15,15,0,0,1-15.4,15.3c-2.12-.06-4.24,0-6.36,0,3.76-1.48,7.21-3.35,9.47-6.92a14.3,14.3,0,0,0,2.36-7.86Q190.65,131.11,190.69,59.91Z"
        fill="#d0e6f1" />
    <path
        d="M58.05,27.74c0,7,.06,14.05.06,21.07q0,37.72,0,75.45v2.93h-10c0-5.59,0-11.18,0-16.78a11.94,11.94,0,0,0-.5-2.31c.14-1.16.27-2.31.4-3.47q0-8.77,0-17.56c-.14-1.16-.28-2.31-.41-3.47.14-.17.4-.34.4-.51,0-5,0-9.93,0-14.9,0-.17-.27-.34-.41-.51L48,64.21q0-8.77,0-17.56c-.12-1.15-.25-2.31-.38-3.46a11.81,11.81,0,0,0,.49-2.3c0-4.5,0-9,.06-13.5l9.5,0Z"
        fill="#02c6dc" />
    <path
        d="M212,59.82c2-1.45,4.17-2.77,6.07-4.38a10.38,10.38,0,0,0,3.46-8.27c0-11.16-.05-22.33,0-33.49,0-6-2.53-10.21-8-12.65-.67-.3-1.33-.64-2-1,3,0,6.05-.13,9.07,0,6,.26,11.72,6,11.78,12q.15,17.82,0,35.63c-.07,6.4-5.92,11.83-12.91,12.19C217,60,214.51,59.85,212,59.82Z"
        fill="#035f80" />
    <path d="M58.05,27.74l-.4-.38a.61.61,0,0,1,.42-.06A.61.61,0,0,1,58.05,27.74Z" fill="#30dce4" />
    <path d="M48.15,146.83l9.5,0,.4.37q0,25,.05,50.05a5.4,5.4,0,0,1-.17.86H48.09q0-14.88,0-29.77a9.28,9.28,0,0,0-.48-2.09c.12-1.15.25-2.3.37-3.46Z" fill="#02c6dc" />
    <path
        d="M22.2,127.54c-4.86,1.75-7.41,4.87-7.61,9.29-.17,4,2.31,7.51,6.71,9.49-4.37.41-8.8,1.45-12.87-1.28-3.43-2.31-4.3-5.71-3.86-9.52a8.62,8.62,0,0,1,5.62-7.37C14.07,126.63,18.15,126.94,22.2,127.54Z"
        fill="#05c7dc" />
    <path
        d="M48,162.76c-.12,1.16-.25,2.31-.37,3.46-1.38.46-2.75,1.26-4.15,1.31-4.91.16-9.82.07-14.73.06-2.88,0-4.55-1.38-4.47-3.63.07-2.06,1.61-3.23,4.33-3.24,5.06,0,10.13.06,15.18,0A4.45,4.45,0,0,1,48,162.76Z"
        fill="#ebf4f9" />
    <path
        d="M47.59,83.6c.13,1.16.27,2.31.41,3.47a4.45,4.45,0,0,1-4.2,2.1c-5.13-.09-10.27,0-15.4,0-2.63,0-4.2-1.34-4.15-3.42s1.72-3.43,4.23-3.45c5.13,0,10.27-.09,15.4.06C45.13,82.35,46.35,83.15,47.59,83.6Z"
        fill="#ebf4f9" />
    <path
        d="M48,64.21l-.42,3.47c-1.39.45-2.77,1.24-4.17,1.29-5,.15-10.11.1-15.17,0-2.74,0-4.45-2-3.82-4.34a3.12,3.12,0,0,1,3.31-2.51c5.66,0,11.33-.11,17,.09C45.83,62.29,46.9,63.53,48,64.21Z"
        fill="#ebf4f9" />
    <path
        d="M48,104.63c-.13,1.16-.26,2.31-.4,3.47-1.38.45-2.76,1.25-4.15,1.29-5.06.16-10.12.1-15.17,0-2.85,0-4.8-2.27-3.71-4.49a4.57,4.57,0,0,1,3.16-2.26c5.65-.23,11.32-.21,17,0C45.82,102.72,46.89,104,48,104.63Z"
        fill="#ebf4f9" />
    <path
        d="M47.6,43.19c.13,1.15.26,2.31.38,3.46a4.44,4.44,0,0,1-4.19,2.09c-5.12-.1-10.25,0-15.38,0-2.75,0-4.07-1.18-4-3.44s1.5-3.41,4.15-3.42c5.13,0,10.26-.1,15.38,0C45.15,41.93,46.37,42.74,47.6,43.19Z"
        fill="#ebf4f9" />
    <path d="M11.34,105.8a3,3,0,0,1,3.32-3.14,3.43,3.43,0,0,1,3.43,3.47,4.35,4.35,0,0,1-3.56,3.31A3.49,3.49,0,0,1,11.34,105.8Z" fill="#05c7dc" />
    <path d="M11.34,65.59c0-2.13,1.11-3.31,3.11-3.35a3.45,3.45,0,0,1,3.64,3.27c.06,1.49-2,3.53-3.58,3.52A3.49,3.49,0,0,1,11.34,65.59Z" fill="#05c7dc" />
    <path d="M11.34,164.12c0-2.12,1.12-3.3,3.12-3.34a3.45,3.45,0,0,1,3.63,3.27c.05,1.5-2,3.53-3.58,3.52A3.5,3.5,0,0,1,11.34,164.12Z" fill="#05c7dc" />
    <path d="M11.34,45.15a3.49,3.49,0,0,1,3.3-3.31c1.47.07,3.46,2,3.46,3.42a3.46,3.46,0,0,1-3.55,3.37C12.47,48.64,11.3,47.37,11.34,45.15Z" fill="#05c7dc" />
    <path d="M11.34,85.6a3.47,3.47,0,0,1,3.27-3.34c1.46,0,3.47,2,3.49,3.39A3.45,3.45,0,0,1,14.58,89C12.48,89.07,11.31,87.82,11.34,85.6Z" fill="#05c7dc" />
    <path
        d="M168.92,120.31c-4.23,0-8.45.11-12.68,0a5.39,5.39,0,0,1-5.57-5.61q-.06-20,0-40.1c0-3.47,2.23-5.58,5.74-5.62,4.3,0,8.6,0,12.91,0,3,1.44,4.09,4,4.09,7.15,0,12.38,0,24.76,0,37.14C173.38,116.5,172.34,119.21,168.92,120.31Z"
        fill="#ae66d9" />
    <path
        d="M118.06,88.91c-11.25,0-22.51,0-33.77,0-4.3,0-6.54-2.33-6.58-6.63,0-2.49-.08-5,0-7.48.13-3.49,2.33-5.79,5.67-5.8,11.7-.05,23.4,0,35.1,0,3.16,1.66,4,4.38,3.65,7.73a25.69,25.69,0,0,0,0,5C122.48,85.1,121.2,87.5,118.06,88.91Z"
        fill="#02f1a6" />
    <path
        d="M118.51,120.33c-11.64,0-23.27.06-34.91,0a5.6,5.6,0,0,1-5.87-5.64c-.14-2.86-.14-5.74,0-8.61a5.65,5.65,0,0,1,5.88-5.67c11.79,0,23.57,0,35.36,0,3.07,2.45,3.54,5.78,3.18,9.41a11.89,11.89,0,0,0,0,2.92C122.67,116.16,121.25,118.55,118.51,120.33Z"
        fill="#fd5ca7" />
    <path
        d="M168.92,120.31c3.42-1.1,4.46-3.81,4.47-7,.06-12.38,0-24.76,0-37.14,0-3.16-1.09-5.71-4.09-7.15,2.94,0,5.88-.11,8.82,0a5.51,5.51,0,0,1,5.7,5.73q.06,19.92,0,39.86a5.56,5.56,0,0,1-5.65,5.79C175.11,120.42,172,120.33,168.92,120.31Z"
        fill="#9857bd" />
    <path
        d="M106.91,198.12q-12.25,0-24.49,0c-3,0-4.37-1.06-4.4-3.35s1.45-3.54,4.51-3.54h49.2a10.84,10.84,0,0,1,1.14,0,3.4,3.4,0,0,1,3.37,3.52c0,2-1.24,3.29-3.48,3.32-4.31.08-8.62,0-12.93,0Z"
        fill="#30dce4" />
    <path
        d="M181,154.76c-.37,8.23-4.08,13.87-13.19,15.09a82.78,82.78,0,0,1-8.35.47c-3.59.11-6.4,1.38-8.11,4.75-1.22,2.41-3.08,3.09-4.94,2.05s-2.37-3-1.21-5.26A14.37,14.37,0,0,1,158,163.49c2.78-.16,5.58-.22,8.36-.43,4.93-.37,7.33-2.9,7.54-7.84,0-.23,0-.46,0-.68.18-2.39,1.57-3.82,3.66-3.76S181,152.39,181,154.76Z"
        fill="#fd5ea8" />
    <path
        d="M82.48,162.37c0-5.67,0-11.34,0-17,0-2.8,1.3-4.44,3.41-4.42s3.49,1.69,3.5,4.43q0,17.35,0,34.71c0,2.71-1.43,4.36-3.59,4.29s-3.3-1.62-3.31-4.29C82.47,174.17,82.48,168.27,82.48,162.37Z"
        fill="#05c7dc" />
    <path
        d="M164.71,198.12c-5.21,0-10.42,0-15.63,0-2.73,0-4.21-1.18-4.27-3.28s1.5-3.6,4.24-3.6q15.84,0,31.7,0c2.67,0,4.12,1.27,4.12,3.46s-1.33,3.4-4.08,3.42C175.43,198.14,170.07,198.12,164.71,198.12Z"
        fill="#30dce4" />
    <path
        d="M109.28,166.69c0-4.53,0-9.06,0-13.59,0-2.75,1.16-4.15,3.34-4.2s3.56,1.47,3.57,4.25q0,13.48,0,27c0,2.61-1.3,4.19-3.38,4.25s-3.51-1.56-3.52-4.3C109.27,175.6,109.28,171.15,109.28,166.69Z"
        fill="#037397" />
    <path
        d="M118.51,120.33c2.74-1.78,4.16-4.17,3.64-7.55a11.89,11.89,0,0,1,0-2.92c.36-3.63-.11-7-3.18-9.41,2.64,0,5.28-.07,7.93,0A5.73,5.73,0,0,1,133,106.1c.13,2.87.12,5.75,0,8.61a5.65,5.65,0,0,1-5.84,5.66C124.25,120.42,121.38,120.35,118.51,120.33Z"
        fill="#fd3f97" />
    <path
        d="M118.06,88.91c3.14-1.41,4.42-3.81,4.09-7.22a25.69,25.69,0,0,1,0-5c.34-3.35-.49-6.07-3.65-7.73,3,0,5.9-.16,8.84,0A5.65,5.65,0,0,1,133,74.82c.08,2.72.08,5.45,0,8.17a5.87,5.87,0,0,1-5.84,6C124.11,89.07,121.08,88.94,118.06,88.91Z"
        fill="#07e39d" />
    <path
        d="M129.58,172.36c0,2.72.06,5.43,0,8.14-.07,2.38-1.53,3.91-3.53,3.86s-3.39-1.58-3.41-4q-.06-8.25,0-16.5c0-2.41,1.4-3.93,3.43-4s3.45,1.48,3.51,3.87C129.64,166.63,129.58,169.5,129.58,172.36Z"
        fill="#066181" />
    <path
        d="M89.68,48.7c-2.57,0-5.14,0-7.7,0-2.28-.06-3.48-1.22-3.55-3.26A3.31,3.31,0,0,1,82,41.86q7.82-.11,15.63,0c2.29,0,3.68,1.42,3.68,3.43s-1.38,3.37-3.66,3.41C95,48.74,92.32,48.7,89.68,48.7Z"
        fill="#30dce4" />
    <path
        d="M102.68,175.38c0,1.88.06,3.77,0,5.65a3.39,3.39,0,0,1-3.3,3.33,3.36,3.36,0,0,1-3.49-3.16q-.18-6,0-12A3.37,3.37,0,0,1,99.56,166a3.26,3.26,0,0,1,3.12,3.5c0,2,0,3.91,0,5.87Z"
        fill="#33dce4" />
    <path d="M99.39,157.57a3.52,3.52,0,0,1-3.53-3.37,3.46,3.46,0,0,1,3.45-3.42,3.22,3.22,0,0,1,3.33,3.23A3.37,3.37,0,0,1,99.39,157.57Z" fill="#33dce4" />
    <path d="M58.05,147.17l-.4-.37Z" fill="#30dce4" />
    <path
        d="M211.08,46.64c-7.4,0-14.8,0-22.19,0-3.74,0-4.71-1.23-3.66-4.76,2.1-7.06,6.83-11.36,14-12.95.43.27.87.53,1.28.81,2.47,1.68,5.38,3,7.29,5.14C210.67,38.1,213.31,41.81,211.08,46.64Z"
        fill="#d0e6f1" />
    <path
        d="M211.08,46.64c2.23-4.83-.41-8.54-3.26-11.77-1.91-2.17-4.82-3.46-7.29-5.14-.41-.28-.85-.54-1.28-.81l.77-.42-.78-.56a4.65,4.65,0,0,1,.78-.76c3.42-2,6-7.7,2.75-12.35a27.9,27.9,0,0,0-3.48-3.48A8.77,8.77,0,0,1,210.87,16c2.15,4.94-.18,10-6,12.45,1.18.35,2.21.61,3.2,1,6.46,2.29,10.59,6.71,12.07,13.44.53,2.43-.56,3.81-3,3.88C215.15,46.8,213.11,46.68,211.08,46.64Z"
        fill="#b2d5e8" />
    <path d="M199.29,11.35a27.9,27.9,0,0,1,3.48,3.48c3.3,4.65.67,10.36-2.75,12.35a4.65,4.65,0,0,0-.78.76c-3.67-1.62-5.69-4.49-5.62-8.45A8.35,8.35,0,0,1,199.29,11.35Z"
        fill="#d0e6f1" />
</svg>