<svg data-name="Layer 1" id="Layer_1" viewBox="0 0 246.64 246.63" xmlns="http://www.w3.org/2000/svg">
    <path
        d="M205.66,31.8c5.59,6,11.28,12,16.72,18.17,2,2.32,3.5,5.16,5.23,7.76-2.09,0-4.18-.12-6.25.07a8.29,8.29,0,0,1-6.29-2.2,143.17,143.17,0,0,0-44.15-24.36l.56-1.85a28.48,28.48,0,0,0,4-.36,4.7,4.7,0,0,0,3.59-5,4.8,4.8,0,0,0-4.44-4.3c-.88-.07-1.76,0-2.64,0H120.16c-3.12,0-6.24.06-9.35.09-12.8,0-25.59-.08-38.38-.06a4.72,4.72,0,0,0-4.92,4.56,5,5,0,0,0,4.77,5c1.08.11,2.15.31,3.23.47l.36,1.43A142.08,142.08,0,0,0,32,55.32a9.5,9.5,0,0,1-6.93,2.54l-5.9-.53A126,126,0,0,1,43.36,29.38c3,1.41,5.86,1.66,8.51-.59A6.83,6.83,0,0,0,54,21.22c.28-.16.57-.3.83-.48A122,122,0,0,1,105.53,1.31C108.26.92,111,.44,113.69,0h18.78a13.06,13.06,0,0,0,1.7.48c3.6.52,7.21,1,10.81,1.51-1.54,2.07-2.45,4.3-1.65,6.93a7,7,0,0,0,8.24,4.86c4.06-1,6-4.58,5.08-9.15a119.43,119.43,0,0,1,36.82,17.25c.66.45,1.33.88,2,1.32-.54,4.52.41,8.6,3.67,11.93a3.57,3.57,0,0,0,6-.82A13,13,0,0,0,205.66,31.8Z"
        fill="#0d67e8" />
    <path
        d="M0,59.26c1.18-.49,2.35-1.34,3.54-1.39,4.28-.17,8.57,0,12.85-.09a17.63,17.63,0,0,0,2.76-.45l5.9.53c-3.16,1.7-5.28,4.08-5.29,7.9,0,3.37-.05,6.73-.08,10.1-4.12-.84-5.86.83-5.35,5s2.73,7.21,5.88,9.72a18.83,18.83,0,0,0-.43,2.76c0,9.86,0,19.71-.05,29.57-.05,4.47,1.39,7.8,5.82,9.39H.54s-.08.35-.16.73l-.19,0L0,133Z"
        fill="#b1cfd7" />
    <path d="M156.65,4.63c.94,4.57-1,8.12-5.08,9.15a7,7,0,0,1-8.24-4.86c-.8-2.63.11-4.86,1.65-6.93l3.39-2h3.37Z" fill="#f95858" />
    <path d="M148.37,0,145,2c-3.6-.5-7.21-1-10.81-1.51a13.06,13.06,0,0,1-1.7-.48Z" fill="#f3f5fb" />
    <path
        d="M25.55,132.26c-4.43-1.59-5.87-4.92-5.82-9.39.1-9.86,0-19.71.05-29.57a17.3,17.3,0,0,1,.44-2.75,71.8,71.8,0,0,0,7.25,2.18,3,3,0,0,0,3.68-2.31,6,6,0,0,0-.93-3.87c-.43-.68-1.79-.91-2.78-1.09-3.59-.65-5.23-2.36-6-5.86a17.16,17.16,0,0,0-1.81-3.74c0-3.37.07-6.73.08-10.1,0-3.82,2.13-6.2,5.29-7.9A9.5,9.5,0,0,0,32,55.32,142.08,142.08,0,0,1,75.87,31.2q5.49,13.31,10.95,26.61c.84,2.06,1.53,4.17,2.29,6.26-.4,0-.8,0-1.2,0-3.57,0-5.6,1.77-5.6,4.79s2.09,4.8,5.6,4.84l5.51,0c.59,1.48,1.16,3,1.78,4.44a30,30,0,0,0,15,15.82c2,1,4.86,1.26,5.77,2.79,1,1.73.29,4.5.33,6.81-.72,0-1.44.06-2.16.07-3.26,0-5.25,1.13-6,3.41-.87,2.75.53,4.58,2.59,6.1-3,0-5.93,0-8.9.06-3.13.06-5.11,2-5.09,4.85a4.62,4.62,0,0,0,5,4.75q21.64.08,43.3,0a4.63,4.63,0,0,0,4.95-4.76c0-2.87-2-4.79-5.09-4.85-3,0-5.94,0-8.9-.06,2.06-1.52,3.46-3.35,2.59-6.1-.73-2.3-2.7-3.38-6-3.41-.72,0-1.44,0-2.16-.07a13.38,13.38,0,0,0,0-2.61c-.6-3.36.41-5.6,4-6.15.67-.24,1.36-.42,2-.72,8.78-4.17,14-11.32,16.85-20.38,2.07,0,4.15,0,6.22-.06a4.67,4.67,0,0,0,4.84-4.84c0-2.8-1.9-4.66-4.86-4.77-.64,0-1.28,0-1.91,0l13.38-32.84A143.17,143.17,0,0,1,215.07,55.6a8.29,8.29,0,0,0,6.29,2.2c2.07-.19,4.16-.06,6.25-.07,5.21,0,10.42,0,15.63.09,2.6,0,3.39.74,3.39,3.22q0,34.67,0,69.31a5.12,5.12,0,0,1-.24,1.15,21.71,21.71,0,0,1-4.16.82c-10.74.1-21.47.11-32.21.15l-7.91-.13c2.34-2.81,4.29-5.8,4.47-9.6.12-2.45-1.13-4.12-3.2-4.32s-3.61,1-4,3.47c-.64,4.16-2.18,5.78-6.23,6.4-2.38.36-3.83,1.52-3.92,4l-139.88,0c-1,0-2.08.07-3.12.11l-9.63.06ZM65,59.9c.06-2.66-1.16-4.32-3.28-4.48s-3.69,1.39-3.94,4.16a10.88,10.88,0,0,1-.28,1.9c-1.46,5.2-5,7.73-10.3,8.24-2.51.23-3.79,1.8-3.57,3.92a3.72,3.72,0,0,0,4,3.28C56.75,76.86,64.87,68.89,65,59.9ZM202.85,99c-.06,2.44,1.2,4,3.3,4.19a3.46,3.46,0,0,0,3.87-3.09c.88-4.94,1.78-5.86,6.77-6.9,2.28-.48,3.53-2,3.34-4a3.72,3.72,0,0,0-4-3.28C209.28,86,203,92.19,202.85,99ZM187.19,74.78a6.75,6.75,0,0,0,7-6.69,7,7,0,0,0-6.82-7.23,7.22,7.22,0,0,0-7.11,7A7,7,0,0,0,187.19,74.78ZM72.27,112.34a7,7,0,0,0-7-7.1,7,7,0,0,0,.06,14A7.08,7.08,0,0,0,72.27,112.34Z"
        fill="#e0eaef" />
    <path
        d="M159,241.34c-10,3.3-20.29,4.67-30.72,5.29a18.73,18.73,0,0,0-.21-2.13,4.75,4.75,0,0,0-4.59-3.81,4.57,4.57,0,0,0-4.68,3.36,14.58,14.58,0,0,0-.36,2.58c-10.44-.61-20.74-2-30.71-5.3V223c8.92.21,17.79,0,26.58-2.49-1.35-4.41-2.68-8.43-3.76-12.51a6.51,6.51,0,0,1,.29-3.59c1.51-4.21,3.35-8.31,4.75-12.55,1-2.85.53-3.16-2.33-2.47a88.36,88.36,0,0,1-25.54,1.83q0-19,0-38h30.82c0,8.89,0,17.77,0,26.66,0,3.56,2.4,5.7,5.63,5.19,2.53-.39,4-2.32,4-5.43q0-13.22,0-26.42H159l.09,32.43-8.24,1.85c1.12,4.29,2.26,8.28,3.16,12.32a8.12,8.12,0,0,1-.22,3.88c-1.27,4.36-2.79,8.66-4.06,13-.65,2.26-.2,2.55,2,2.05,2.41-.54,4.84-1,7.26-1.43Q159,229.36,159,241.34Zm-30.83-18.47q0-10.1,0-20.2c0-3.6-1.75-5.65-4.75-5.69s-4.87,2-4.88,5.55q0,10.46,0,20.92c0,4,2,5.74,6.14,5.33l13,12.64V222.87Zm18.69-68.35-12.45,12.4,12.45,12.37Zm-2.57,45.16-13.51-13.41v13.41Z"
        fill="#495959" />
    <path d="M242.88,153.25A116.85,116.85,0,0,1,227,190c-1.68,2.61-3.6,5.07-5.41,7.6l-6.81-2q0-11.07,0-22.14c0-3.94-1-5.18-4.83-6.3q0-7,.08-14Z" fill="#1ed587" />
    <path
        d="M38.54,212.59c-3.33-3.44-6.84-6.73-9.94-10.37A104,104,0,0,1,13.4,179c6.18-1.49,12.27-.4,18.37.6L51,184.42l9.67,2.63a4.93,4.93,0,0,1-1.49.83C49.3,189.31,43.3,200,47.78,209c1.4,2.8,4.08,5,6.17,7.43l-2.87-.52-12-3.09,0,0Z"
        fill="#f34646" />
    <path d="M25.55,132.26l11.06.27q0,10.32-.07,20.65l-32.79.08Q2.06,143.14.38,133c.08-.38.16-.76.16-.73Z" fill="#0a66e9" />
    <path d="M242.88,153.25l-32.78-.07q0-10.35-.07-20.71c10.74,0,21.47-.05,32.21-.15a21.71,21.71,0,0,0,4.16-.82Q244.65,142.38,242.88,153.25Z" fill="#0a66e9" />
    <path d="M3.75,153.26l32.79-.08q0,7,.08,14c-3.93,1.14-4.82,2.33-4.83,6.44,0,2,0,4,0,6-6.1-1-12.19-2.09-18.37-.6A103.76,103.76,0,0,1,3.75,153.26Z" fill="#1ed587" />
    <path
        d="M214.82,195.64l6.81,2a112.45,112.45,0,0,1-24.11,24.1l-11.76-3.16a9,9,0,0,1,1.62-.79c6.07-1.57,10.28-5.13,11.68-11.37,1.23-5.46.21-10.45-4-14.5a25.49,25.49,0,0,1-2.2-2.73l2.7.54Z"
        fill="#f34646" />
    <path d="M185.76,218.57l11.76,3.16a110.09,110.09,0,0,1-27.9,15.85q0-10.35,0-20.71L184,218.18l.23.07.23,0Z" fill="#20d488" />
    <path d="M51.08,215.93l2.87.52L77,221.72v15.87a108.49,108.49,0,0,1-26-14.5C51,220.7,51.05,218.32,51.08,215.93Z" fill="#20d488" />
    <path d="M169.61,216.87q0,10.35,0,20.71L159,241.34q0-12,0-24Z" fill="#607882" />
    <path d="M77,237.59V221.72L87.69,223v18.34Z" fill="#607882" />
    <path
        d="M205.66,31.8a13,13,0,0,1-.55,2.51,3.57,3.57,0,0,1-6,.82c-3.26-3.33-4.21-7.41-3.67-11.93a58.79,58.79,0,0,1,3.85-7.08,3.22,3.22,0,0,1,4.91-.25,3.45,3.45,0,0,1,.55,4.78c-3.07,4.93-3,6.26.49,10.67.14.17.29.34.43.52Z"
        fill="#fdaa10" />
    <path d="M51.08,215.93c0,2.39-.07,4.77-.11,7.16L39.08,212.84Z" fill="#dfe9ed" />
    <path d="M118.4,246.63a14.58,14.58,0,0,1,.36-2.58,4.57,4.57,0,0,1,4.68-3.36A4.75,4.75,0,0,1,128,244.5a18.73,18.73,0,0,1,.21,2.13Z" fill="#dfe9ed" />
    <path d="M205.7,31.84c-.14-.18-.29-.35-.43-.52C205.41,31.49,205.56,31.66,205.7,31.84Z" fill="#0d67e8" />
    <path d="M38.54,212.59l.58.29Z" fill="#dfe9ed" />
    <path d="M170.92,31.24,157.54,64.08H112.72a5.86,5.86,0,0,0-.24-1.4c-3.13-7.59-6.32-15.16-9.4-22.78-1.4-3.45-2.58-7-3.86-10.49l11.14-.17c1.37,0,2.73.12,4.09.12l57,0Z"
        fill="#fea80b" />
    <path
        d="M99.22,29.42c1.28,3.5,2.46,7,3.86,10.49,3.08,7.62,6.27,15.19,9.4,22.78a5.86,5.86,0,0,1,.24,1.4,1.84,1.84,0,0,1-.41,0l-23.2-.06c-.76-2.09-1.45-4.2-2.29-6.26Q81.39,44.49,75.87,31.2l-.36-1.42a9.23,9.23,0,0,1,1.83-.4C84.63,29.37,91.92,29.4,99.22,29.42Z"
        fill="#f19501" />
    <path
        d="M171.48,29.39l-57,0c-1.36,0-2.72-.08-4.09-.12-.12-.29-.17-.67-.38-.85-3.08-2.65-2.58-6.2.83-8.63,3.11,0,6.23-.09,9.35-.09H172c.88,0,1.76,0,2.64,0a4.8,4.8,0,0,1,4.44,4.3,4.7,4.7,0,0,1-3.59,5A28.48,28.48,0,0,1,171.48,29.39Z"
        fill="#fdcc70" />
    <path
        d="M110.81,19.77c-3.41,2.43-3.91,6-.83,8.63.21.18.26.56.38.85l-11.14.17c-7.3,0-14.59-.05-21.88,0a9.23,9.23,0,0,0-1.83.4c-1.08-.17-2.15-.37-3.23-.48a5,5,0,0,1-4.77-5,4.72,4.72,0,0,1,4.92-4.56C85.22,19.69,98,19.75,110.81,19.77Z"
        fill="#fec04f" />
    <path d="M43.36,29.38c-2.33-2.15-3.61-4.66-2.62-7.89a6.78,6.78,0,0,1,6.15-4.91c3.43-.18,5.71,1.62,7.13,4.64a6.83,6.83,0,0,1-2.15,7.57C49.22,31,46.31,30.79,43.36,29.38Z"
        fill="#20d488" />
    <path
        d="M19.68,75.86a17.16,17.16,0,0,1,1.81,3.74c.72,3.5,2.36,5.21,6,5.86,1,.18,2.35.41,2.78,1.09a6,6,0,0,1,.93,3.87,3,3,0,0,1-3.68,2.31,71.8,71.8,0,0,1-7.25-2.18C17.06,88,14.85,85,14.33,80.82S15.56,75,19.68,75.86Z"
        fill="#fdaa10" />
    <path d="M118.51,153.26H77l-30.72-.08q0-10.35-.07-20.71c1,0,2.08-.11,3.12-.11l139.88,0c.48,2.37,2,3.5,4.31,3.09s4.54-1.25,6.81-1.9l0,19.66-30.72.08h-51.1Z"
        fill="#0a66e9" />
    <path
        d="M116.26,103.59c0-2.31.7-5.08-.33-6.81C115,95.25,112.12,95,110.16,94a30,30,0,0,1-15-15.82c-.62-1.47-1.19-3-1.78-4.44,5.29,0,10.58,0,15.87,0a12.63,12.63,0,0,0,2.48-.48l5.28.53c.35,1,.67,2,1,2.92,2.76,7,7.11,12.59,13.69,16.37.91.52,1.74,1.19,2.61,1.8-3.62.55-4.63,2.79-4,6.15a13.38,13.38,0,0,1,0,2.61Z"
        fill="#f19501" />
    <path
        d="M117.05,73.74l-5.28-.53c-1.77-1.88-3.26-3.89-1.69-6.58a16.85,16.85,0,0,1,2.23-2.5,1.84,1.84,0,0,0,.41,0h44.82c.63,0,1.27,0,1.91,0,3,.11,4.85,2,4.86,4.77a4.67,4.67,0,0,1-4.84,4.84c-2.07.09-4.15,0-6.22.06Z"
        fill="#fec04f" />
    <path
        d="M117.05,73.74h36.2c-2.88,9.06-8.07,16.21-16.85,20.38-.64.3-1.33.48-2,.72-.87-.61-1.7-1.28-2.61-1.8-6.58-3.78-10.93-9.41-13.69-16.37C117.72,75.7,117.4,74.71,117.05,73.74Z"
        fill="#fea80b" />
    <path
        d="M135.93,113.17c3,0,5.93,0,8.9.06,3.13.06,5.11,2,5.09,4.85a4.63,4.63,0,0,1-4.95,4.76q-21.65.06-43.3,0a4.62,4.62,0,0,1-5-4.75c0-2.87,2-4.79,5.09-4.85,3,0,5.94,0,8.9-.06Z"
        fill="#fea80b" />
    <path d="M46.24,132.47q0,10.35.07,20.71,0,7-.07,14H36.62q0-7-.08-14,0-10.32.07-20.65Z" fill="#495959" />
    <path d="M200.33,153.18l0-19.66,1.76-1.18,7.91.13q0,10.35.07,20.71,0,7-.08,14H200.4Q200.37,160.18,200.33,153.18Z" fill="#495959" />
    <path
        d="M135.93,113.17H110.71c-2.06-1.52-3.46-3.35-2.59-6.1.73-2.28,2.72-3.38,6-3.41.72,0,1.44,0,2.16-.07h14.12c.72,0,1.44.06,2.16.07,3.28,0,5.25,1.11,6,3.41C139.39,109.82,138,111.65,135.93,113.17Z"
        fill="#fdc050" />
    <path
        d="M112.31,64.13a16.85,16.85,0,0,0-2.23,2.5c-1.57,2.69-.08,4.7,1.69,6.58a12.63,12.63,0,0,1-2.48.48c-5.29,0-10.58,0-15.87,0l-5.51,0c-3.51,0-5.6-1.85-5.6-4.84s2-4.76,5.6-4.79c.4,0,.8,0,1.2,0Z"
        fill="#fea80b" />
    <path
        d="M65,59.9c-.17,9-8.29,17-17.32,17a3.72,3.72,0,0,1-4-3.28c-.22-2.12,1.06-3.69,3.57-3.92,5.28-.51,8.84-3,10.3-8.24a10.88,10.88,0,0,0,.28-1.9c.25-2.77,1.71-4.32,3.94-4.16S65.1,57.24,65,59.9Z"
        fill="#f34646" />
    <path
        d="M202.85,99c.17-6.82,6.43-13,13.24-13a3.72,3.72,0,0,1,4,3.28c.19,2-1.06,3.48-3.34,4-5,1-5.89,2-6.77,6.9a3.46,3.46,0,0,1-3.87,3.09C204.05,103.05,202.79,101.45,202.85,99Z"
        fill="#f34646" />
    <path
        d="M202.12,132.34l-1.76,1.18c-2.27.65-4.5,1.48-6.81,1.9s-3.83-.72-4.31-3.09c.09-2.52,1.54-3.68,3.92-4,4.05-.62,5.59-2.24,6.23-6.4.39-2.48,1.78-3.69,4-3.47s3.32,1.87,3.2,4.32C206.41,126.54,204.46,129.53,202.12,132.34Z"
        fill="#20d488" />
    <path d="M187.19,74.78a7,7,0,0,1-6.92-6.88,7.22,7.22,0,0,1,7.11-7,7,7,0,0,1,6.82,7.23A6.75,6.75,0,0,1,187.19,74.78Z" fill="#20d488" />
    <path d="M72.27,112.34a7.08,7.08,0,0,1-6.91,6.93,7,7,0,0,1-.06-14A7,7,0,0,1,72.27,112.34Z" fill="#f95858" />
    <path
        d="M87.69,223,77,221.72,54,216.45c-2.09-2.46-4.77-4.63-6.17-7.43-4.48-9,1.52-19.71,11.44-21.14a4.93,4.93,0,0,0,1.49-.83l1.44.42.46,0L77,190.17l10.69,1a88.36,88.36,0,0,0,25.54-1.83c2.86-.69,3.28-.38,2.33,2.47-1.4,4.24-3.24,8.34-4.75,12.55a6.51,6.51,0,0,0-.29,3.59c1.08,4.08,2.41,8.1,3.76,12.51C105.48,223,96.61,223.2,87.69,223Z"
        fill="#f95858" />
    <path
        d="M169.61,216.87l-10.66.5c-2.42.47-4.85.89-7.26,1.43-2.21.5-2.66.21-2-2.05,1.27-4.36,2.79-8.66,4.06-13a8.12,8.12,0,0,0,.22-3.88c-.9-4-2-8-3.16-12.32l8.24-1.85L169.6,185c1.75.17,3.53.2,5.25.53,5.64,1.06,11.25,2.23,16.87,3.36l1.07.36.06-.07a25.49,25.49,0,0,0,2.2,2.73c4.22,4.05,5.24,9,4,14.5-1.4,6.24-5.61,9.8-11.68,11.37a9,9,0,0,0-1.62.79l-1.27-.35-.46,0Z"
        fill="#f95858" />
    <path d="M87.68,191.21l-10.69-1q0-18.45,0-36.91H87.69Q87.69,172.24,87.68,191.21Z" fill="#607881" />
    <path d="M169.6,185l-10.56.68L159,153.25h10.66Q169.59,169.13,169.6,185Z" fill="#607881" />
    <path d="M118.51,153.26h9.62q0,13.22,0,26.42c0,3.11-1.45,5-4,5.43-3.23.51-5.62-1.63-5.63-5.19C118.48,171,118.51,162.15,118.51,153.26Z" fill="#e0eaef" />
    <path d="M124.65,228.78c-4.11.41-6.13-1.31-6.14-5.33q0-10.45,0-20.92c0-3.51,1.86-5.58,4.88-5.55s4.74,2.09,4.75,5.69q0,10.11,0,20.2h-9Z" fill="#dfe9ed" />
    <path d="M146.82,154.52v24.77l-12.45-12.37Z" fill="#f95858" />
    <path d="M124.65,228.78l-5.56-5.91h18.52v18.55Z" fill="#f95858" />
    <path d="M144.25,199.68H130.74V186.27Z" fill="#f95858" />
    <path d="M200.4,167.2H210c3.87,1.12,4.83,2.36,4.83,6.3q0,11.07,0,22.14l-19.27-5.92,0-16C195.58,169.53,196.46,168.34,200.4,167.2Z" fill="#dfe9ed" />
    <path d="M77,153.26q0,18.45,0,36.91l-14.38-2.66a.53.53,0,0,0-.46,0l-1.44-.42L51,184.42q0-5.38,0-10.75c0-4.13-.9-5.33-4.82-6.47q0-7,.07-14Z" fill="#1ed587" />
    <path d="M46.24,167.2c3.92,1.14,4.82,2.34,4.82,6.47q0,5.37,0,10.75l-19.27-4.83c0-2,0-4,0-6,0-4.11.9-5.3,4.83-6.44Z" fill="#dfe9ed" />
    <path
        d="M200.4,167.2c-3.94,1.14-4.82,2.33-4.82,6.49l0,16-2.7-.54-.06.07-1.07-.36c-5.62-1.13-11.23-2.3-16.87-3.36-1.72-.33-3.5-.36-5.25-.53q0-15.87,0-31.74l30.72-.08Q200.36,160.19,200.4,167.2Z"
        fill="#1ed587" />
    <path d="M184,218.18l.46,0-.23,0Z" fill="#f34646" />
    <path d="M62.15,187.47a.53.53,0,0,1,.46,0Z" fill="#f34646" />
    <path d="M191.72,188.89l1.07.36Z" fill="#f34646" />
</svg>