<svg data-name="Layer 1" id="Layer_1" viewBox="0 0 252.37 244.2" xmlns="http://www.w3.org/2000/svg">
    <path
        d="M191.39,244c-10.68-.68-20.24-9.09-22.56-19.66C166.56,214,170.9,200.75,185,195V155.8h-8.38l16.84-21.08,16.75,20.89h-8.43v39.06L191,193.37l-.12.71c.62.25,1.23.51,1.86.73A26.68,26.68,0,0,1,203,201.24a25.17,25.17,0,0,1-9.38,41.34A12.61,12.61,0,0,0,191.39,244Z"
        fill="#fecc01" />
    <path
        d="M126.14,117.87H246a17.61,17.61,0,0,1,2.62,0,4.05,4.05,0,0,1,3.75,4,4.12,4.12,0,0,1-3.79,4.27,18.56,18.56,0,0,1-2.36.05H5.21c-3.32,0-5.22-1.59-5.21-4.23s1.91-4.18,5.25-4.18Z"
        fill="#58595b" />
    <path
        d="M84.25,49.47c-.74-.42-1.46-.89-2.23-1.25A25.22,25.22,0,0,1,87.34.59c1-.21,2.06-.3,3.08-.45a8.49,8.49,0,0,0,1.77,1.27C101.53,5,107.1,11.48,109,21.43c2.15,11.62-5.33,23.83-16.3,27.59a34.68,34.68,0,0,0-3.28,1.52Z"
        fill="#fecc01" />
    <path
        d="M21.14,49.47c-.74-.41-1.46-.89-2.22-1.24A25.45,25.45,0,0,1,4.25,23.16,25.38,25.38,0,0,1,23.15.84,22.13,22.13,0,0,1,25.46.52,25.44,25.44,0,0,1,38.9,7.62C52.13,20.83,46.71,43.5,28.56,49.39a8.07,8.07,0,0,0-1.77,1.14Z"
        fill="#ec1c24" />
    <path
        d="M151.53,49.48c-.74-.42-1.45-.91-2.22-1.27a25.42,25.42,0,0,1-14.62-25.38A25.45,25.45,0,0,1,154.16.67c1-.24,2.05-.36,3.07-.53.34.32.63.83,1,.93a25.21,25.21,0,0,1,12,7.53c11.52,12.26,6.6,33.87-9.11,39.85-1.69.65-3.34,1.39-5,2.08Z"
        fill="#7ed53e" />
    <path
        d="M214.64,49.49a15.5,15.5,0,0,0-1.73-1.07c-9.89-4.46-16.06-14.68-15.1-25A25.43,25.43,0,0,1,217.28.7c1-.24,2-.36,3.06-.54a10.26,10.26,0,0,0,1.82,1.08,25.23,25.23,0,0,1-.33,48.21,6.1,6.1,0,0,0-1.52,1.07Z"
        fill="#2488fe" />
    <path
        d="M56.27,244c-11.83-1.43-20.53-9.93-22.44-21.91-1.67-10.5,4.54-21.54,14.75-26.27a21.86,21.86,0,0,0,2-1.15l5.66-1a10.06,10.06,0,0,0,2,1.22A25.63,25.63,0,0,1,75.7,218.54c0,11.29-7,20.8-18.12,24.51A5.33,5.33,0,0,0,56.27,244Z"
        fill="#2488fe" />
    <path
        d="M122.23,243.63c-9.57-.82-18.74-9.45-20.73-19.52a25.25,25.25,0,0,1,14.65-28.39,15.5,15.5,0,0,0,1.75-1l5.13-.56a8.29,8.29,0,0,0,1.21.49c13.74,3.45,22.09,18.38,17.61,31.71C138.66,235.81,132.08,241.61,122.23,243.63Z"
        fill="#ec1c24" />
    <path d="M123,194.12l-5.13.56-.12-33.1c0-1.83,0-3.66,0-5.77h-8.46l16.87-21.1L143,155.64H134.5v39c-.86-.09-1.72-.24-2.58-.27C129,194.28,126,194.21,123,194.12Z"
        fill="#bc0123" />
    <path d="M56.23,193.64l-5.66,1q0-17.07-.11-34.13v-4.73H42l16.88-21.1,16.77,20.95H67.18v39Z" fill="#015ecd" />
    <path d="M21.14,49.47l5.65,1.06,11-1q0,17.07.1,34.13c0,1.48,0,3,0,4.71h8.48L29.44,109.44,12.69,88.52h8.45Z" fill="#bc0123" />
    <path d="M84.25,49.47l5.12,1.07,11.48-1q0,17.76.1,35.5V88.3h8.49L92.55,109.44l-16.77-21h8.47Z" fill="#dcb201" />
    <path d="M151.53,49.48l4.64,1.05,12-1q.06,17.73.11,35.47v3.41h8.44l-16.84,21.06c-5.61-7-11-13.74-16.71-20.87h8.38Z" fill="#4e901f" />
    <path d="M214.64,49.49l5.67,1,10.95-1q0,17.59.1,35.2c0,1.13,0,2.26,0,3.68h8.45L223,109.44l-16.7-20.86h8.38Z" fill="#015ecd" />
    <path
        d="M168.15,49.5l-12,1c1.66-.69,3.31-1.43,5-2.08,15.71-6,20.63-27.59,9.11-39.85a25.21,25.21,0,0,0-12-7.53c-.4-.1-.69-.61-1-.93a25.46,25.46,0,0,1,27.64,21c1.91,10.71-4.08,22.31-14.46,27.16C169.64,48.67,168.91,49.1,168.15,49.5Z"
        fill="#60ad26" />
    <path
        d="M37.74,49.49l-11,1a8.07,8.07,0,0,1,1.77-1.14C46.71,43.5,52.13,20.83,38.9,7.62A25.44,25.44,0,0,0,25.46.52c8.9-1.71,16.41,1.11,22.44,7.54a25.25,25.25,0,0,1-8.15,40.35C39.06,48.73,38.41,49.13,37.74,49.49Z"
        fill="#d80329" />
    <path
        d="M100.85,49.49l-11.48,1A34.68,34.68,0,0,1,92.65,49c11-3.76,18.45-16,16.3-27.59-1.85-9.95-7.42-16.48-16.76-20A8.49,8.49,0,0,1,90.42.14a25.1,25.1,0,0,1,26.69,18.94c3.12,12.22-3.06,24.34-15,29.66A13,13,0,0,0,100.85,49.49Z"
        fill="#ebbf03" />
    <path
        d="M56.23,193.64l11,1c3.42,2.33,7.32,4.2,10.16,7.1a24.62,24.62,0,0,1,4.41,27.94A25.24,25.24,0,0,1,56.27,244a5.33,5.33,0,0,1,1.31-.95c11.1-3.71,18.16-13.22,18.12-24.51a25.63,25.63,0,0,0-17.45-23.68A10.06,10.06,0,0,1,56.23,193.64Z"
        fill="#036eef" />
    <path
        d="M123,194.12c3,.09,5.93.16,8.89.27.86,0,1.72.18,2.58.27,3.58,2.53,7.71,4.56,10.65,7.69,7.27,7.74,8.32,19.14,3.34,28.45A25.36,25.36,0,0,1,123.17,244a3.64,3.64,0,0,1-.94-.4c9.85-2,16.43-7.82,19.62-17.31,4.48-13.33-3.87-28.26-17.61-31.71A8.29,8.29,0,0,1,123,194.12Z"
        fill="#d80329" />
    <path
        d="M231.26,49.49l-10.95,1a6.1,6.1,0,0,1,1.52-1.07,25.23,25.23,0,0,0,.33-48.21A10.26,10.26,0,0,1,220.34.16a25.18,25.18,0,0,1,27.8,26.75c-.72,9.88-5.82,17-14.62,21.4C232.76,48.69,232,49.09,231.26,49.49Z"
        fill="#026eef" />
    <path
        d="M191.39,244a12.61,12.61,0,0,1,2.26-1.43A25.17,25.17,0,0,0,203,201.24a26.68,26.68,0,0,0-10.32-6.43c-.63-.22-1.24-.48-1.86-.73l.12-.71,10.84,1.3c3.42,2.34,7.35,4.19,10.18,7.11a24.64,24.64,0,0,1,4.39,27.95A25.15,25.15,0,0,1,191.39,244Z"
        fill="#ebbf03" />
</svg>