<svg data-name="Layer 1" id="Layer_1" viewBox="0 0 246.72 245.33" xmlns="http://www.w3.org/2000/svg">
    <path
        d="M23.62,186.1c-5.67,0-11.34-.15-17,.05-3,.11-5.3-.6-6.63-3.45V72.34c6.68-6.91,13.28-13.9,20.12-20.65a8.31,8.31,0,0,1,5.17-1.91c6-.23,12-.08,18-.07-1.63,1.4-3.35,2.7-4.87,4.2C33.26,59,28.17,64.26,22.94,69.35a7,7,0,0,0-2.26,5.52q.08,52.44,0,104.9C20.65,182.53,21.31,184.6,23.62,186.1Z"
        fill="#f9e1bf" />
    <path
        d="M23.62,186.1c-2.31-1.5-3-3.57-3-6.33q.14-52.45,0-104.9a7,7,0,0,1,2.26-5.52C28.17,64.26,33.26,59,38.46,53.91c1.52-1.5,3.24-2.8,4.87-4.2l36.53,0c.07,1.84.07,3.69.22,5.52.22,2.52,1.36,3.55,3.91,3.59,3,0,5.93,0,8.9,0A3.08,3.08,0,0,1,96.16,61a52.7,52.7,0,0,0,2.12,5.1,3.46,3.46,0,0,1-.87,4.51c-2.11,2-4.1,4.08-6.15,6.11C89.68,78.32,89.5,80,91,81.62q3.72,3.91,7.63,7.64c1.61,1.54,3.29,1.38,4.87-.2,1.76-1.75,3.56-3.45,5.34-5.18q0,33.91,0,67.83C97.68,152,89.09,157,83.39,166.62a28.76,28.76,0,0,0-3.47,19.46H27.51Zm31-87.18c-8.35,0-16.71,0-25.06,0-2.85,0-4.41,1.37-4.46,3.65s1.36,3.5,4.1,3.81a11.49,11.49,0,0,0,1.44,0q23.85,0,47.7,0c1.11,0,2.48,0,3.25-.54,1-.77,2.15-2.17,2.13-3.28s-1.23-2.4-2.23-3.23c-.62-.52-1.83-.42-2.78-.43Q66.63,98.9,54.58,98.92Zm-.13,18.17q-12.53,0-25,0c-2.89,0-4.28,1.1-4.35,3.34s1.49,3.85,4.24,3.86q25.17.06,50.32,0A4.39,4.39,0,0,0,82.8,123c.69-.94,1.16-2.8.68-3.66A4.88,4.88,0,0,0,80,117.19C71.46,117,63,117.09,54.45,117.09Zm0,25.18c8.26,0,16.53,0,24.79,0a6.31,6.31,0,0,0,3-.6,3.12,3.12,0,0,0,1.5-3.93C83,135.64,81.43,135,79.37,135q-24.78,0-49.57,0c-3.12,0-4.81,1.38-4.74,3.82.06,2.25,1.69,3.4,4.84,3.41Zm0-61.27H50.6c-7.15,0-14.29,0-21.44,0-2,0-3.71.83-3.88,2.8a5.94,5.94,0,0,0,1.66,3.82c.52.61,1.93.59,2.94.6q17.59,0,35.17,0c4.9,0,9.8,0,14.69,0,2.63,0,4.33-1.74,4.09-4-.21-2-1.77-3.24-4.32-3.24Q67,81,54.45,81ZM40.22,153.24c-3.69,0-7.37,0-11,0-2.58,0-4,1.24-4.11,3.35s1.43,3.81,4,3.84q11.18.12,22.33,0c2.57,0,4.09-1.64,4-3.83-.07-2-1.65-3.34-4.14-3.36C47.58,153.22,43.9,153.24,40.22,153.24Z"
        fill="#fdf0d9" />
    <path
        d="M108.88,83.88c-1.78,1.73-3.58,3.43-5.34,5.18-1.58,1.58-3.26,1.74-4.87.2q-3.9-3.72-7.63-7.64c-1.54-1.61-1.36-3.3.22-4.86,2-2,4-4.14,6.15-6.11a3.46,3.46,0,0,0,.87-4.51A52.7,52.7,0,0,1,96.16,61a3.08,3.08,0,0,0-3.27-2.25c-3,0-5.93,0-8.9,0-2.55,0-3.69-1.07-3.91-3.59-.15-1.83-.15-3.68-.22-5.52.07-1.53.08-3,.21-4.57.24-2.83,1.13-3.65,4-3.67s5.63,0,8.44,0a3.61,3.61,0,0,0,3.82-2.64c.6-1.65,1.25-3.3,2-4.88a3.41,3.41,0,0,0-.71-4.36q-3-3-6-5.95c-2.09-2.12-2.25-3.33-.22-5.56,2.31-2.55,4.84-4.9,7.33-7.29,1.65-1.58,3.3-1.32,4.85.24,2,2.05,4.13,4.05,6.12,6.16a3.48,3.48,0,0,0,4.54.81c1-.49,2-.94,3.08-1.35C121.5,15,121.5,15,121.5,10.41c0-2.25,0-4.5,0-6.75S122.37.05,124.73,0c3.67,0,7.34,0,11,0,2.21,0,3.14,1.27,3.14,3.38,0,3.54,0,7.07,0,10.61a32.25,32.25,0,0,0-16,10.62c-.81.35-1.61.71-2.43,1C108,30.49,101.09,45.23,105.28,57.9c2.91,8.79,9,14.37,17.57,17.36A16.89,16.89,0,0,0,125,78a44.06,44.06,0,0,0,13.87,8.32c0,3.44,0,6.89,0,10.33,0,2.31-1.17,3.47-3.33,3.53-3.52.1-7,.12-10.57,0-2.35-.08-3.43-1.33-3.48-3.72-.06-3-.08-5.93,0-8.9A3.26,3.26,0,0,0,119,84c-1.37-.44-2.7-1-4-1.58C111.65,81,111.3,81.07,108.88,83.88Z"
        fill="#688d98" />
    <path
        d="M174.43,166l23.65-.11h7.22l36.61.12c.72,0,1.45,0,2.16,0a2.57,2.57,0,0,1,2.64,2.82q0,13.24,0,26.5c0,2.38-1.56,2.82-3.58,2.82-11.73,0-23.45,0-35.17,0-.88,0-1.77.05-2.65.08h-7.23l-23.64-.16a47.63,47.63,0,0,1-.92-5.27c-.16-2.38,0-4.78,0-7.18q27.3,0,54.59-.05c1.06,0,2.54-.1,3.08-.76a5.25,5.25,0,0,0,1.18-3.73c-.37-2.11-2.24-2.71-4.25-2.71l-54.58,0C173.79,174.29,172.62,170,174.43,166Z"
        fill="#fdd305" />
    <path
        d="M198.1,151.31l-23.67-.1a18.6,18.6,0,0,1-.92-3.65c-.12-2.94,0-5.9,0-8.85,18.31,0,36.62.07,54.92,0a4.67,4.67,0,0,0,3.3-1.51,4.58,4.58,0,0,0,.51-3.5c-.47-1.78-2.08-2.17-3.85-2.17q-27.46,0-54.92,0c.4-4.13-.94-8.4,1-12.42l39-.06H243c3.05,0,3.69.63,3.7,3.63q0,12.27,0,24.55c0,3.26-.67,4-3.93,4q-17.33,0-34.65,0c-1,0-1.92.09-2.88.14Z"
        fill="#03d0fa" />
    <path
        d="M174.9,213.15l23.17-.16h7.24l37.28.09c3.58,0,4.12.56,4.12,4.21q0,12.15,0,24.3c0,2.91-.77,3.68-3.73,3.68l-68.55,0a36,36,0,0,1-.92-4.78c-.16-2.54,0-5.1,0-7.65h1.68q26.35,0,52.71,0c1.76,0,3.42-.12,4.32-1.92,1.46-2.94-.35-5.31-4.07-5.31q-27.31,0-54.63,0c0-2.78-.16-5.58.05-8.35A17.2,17.2,0,0,1,174.9,213.15Z"
        fill="#fc5527" />
    <path
        d="M122.88,24.63a32.25,32.25,0,0,1,16-10.62c1.53.93,3.09,1.81,4.56,2.82,4.09,2.8,7.2,1.58,10-2.11a33.56,33.56,0,0,1,3.89-3.93,2.8,2.8,0,0,1,4.28-.12q4.07,3.9,8,8c1.41,1.47,1.23,3-.18,4.46-2,2-3.89,4.07-6,5.94-1.89,1.69-2,3.45-.89,5.57a24.2,24.2,0,0,1,1.24,2.86c1.56,4,1.55,4,5.7,4H176c3.41,0,3.84.39,4.34,3.69a5.74,5.74,0,0,0,.37,1.13l0,7.19c-1.3,5.27-1.3,5.27-7,5.27-2,0-4,0-6,0a3.13,3.13,0,0,0-3.39,2.45,14.4,14.4,0,0,1-.64,1.81c-2.93,6.49-2.65,5.55,2.28,10.56,1.07,1.09,2.11,2.2,3.24,3.23,1.67,1.52,1.92,3.15.34,4.8-2.49,2.6-5,5.15-7.65,7.63-1.61,1.52-3.26,1.39-4.83-.25-1.83-1.92-3.81-3.69-5.59-5.65s-3.45-2.37-5.72-1c-1.15.69-2.57.93-3.74,1.61a25.19,25.19,0,0,0-3.08,2.42A44.06,44.06,0,0,1,125,78a16.89,16.89,0,0,1-2.16-2.76c3.48.29,7,1.17,10.43.77,14.07-1.64,24.89-14.51,22.86-29-1.46-10.43-7-17.58-16.82-21.46C133.93,23.41,128.43,23.74,122.88,24.63Z"
        fill="#7ca1b1" />
    <path
        d="M117.31,153.23c10.19,2.37,19.13,12.85,20.45,24a29.28,29.28,0,0,1-19.65,31.39,5,5,0,0,1-.94.17,27.64,27.64,0,0,1-15.72-11.44c-2.63-3.93-4.64-8-4.54-12.87,2.35,2.29,4.68,4.6,7,6.87,2.16,2.07,3.9,2.1,6.05,0q7.09-7,14.11-14.12c1.9-1.92,2-3.91.46-5.51s-3.74-1.43-5.7.5c-3.37,3.32-6.69,6.68-10,10-.6.6-1.24,1.16-2.31,2.16l-9.2-9.81C98,165.78,108.3,154.74,117.31,153.23Z"
        fill="#06e29c" />
    <path
        d="M117.31,153.23c-9,1.51-19.36,12.55-20,21.31-2-.49-3.84-.32-4.9,1.78s0,3.48,1.36,4.86c1.07,1,2.09,2.17,3.12,3.27-.1,4.86,1.91,8.94,4.54,12.87a27.64,27.64,0,0,0,15.72,11.44c-9.29,3.1-17.79,1.25-25.6-4.26-6.39-4.51-9.93-10.91-11.65-18.42a28.76,28.76,0,0,1,3.47-19.46C89.09,157,97.68,152,108.9,151.71Z"
        fill="#10d290" />
    <path
        d="M174.9,213.15a17.2,17.2,0,0,0-1.37,4.08c-.21,2.77-.06,5.57-.05,8.35-3.38,1.91-3.39,4.53,0,7.24,0,2.55-.12,5.11,0,7.65a36,36,0,0,0,.92,4.78c-4.89,0-9.78.07-14.68.08-2.07,0-3.07-1.12-3.1-3.15-.05-3.13-.07-6.25-.1-9.38v-7.22c0-3,0-6.06.1-9.08,0-2.58.87-3.43,3.43-3.43C165,213.08,170,213.12,174.9,213.15Z"
        fill="#ee4525" />
    <path
        d="M173.47,185.65c0,2.4-.12,4.8,0,7.18a47.63,47.63,0,0,0,.92,5.27c-5,0-9.94.07-14.92.08a2.57,2.57,0,0,1-2.85-2.84q0-13.25,0-26.49c0-1.95,1.2-2.93,3.09-2.94,4.89,0,9.79.06,14.68.09-1.81,4-.64,8.29-.94,12.44C170,180.93,170,183.59,173.47,185.65Z"
        fill="#f9c501" />
    <path
        d="M174.43,119.11c-1.9,4-.56,8.29-1,12.42-3.54,2.13-3.52,4.88,0,7.18,0,2.95-.12,5.91,0,8.85a18.6,18.6,0,0,0,.92,3.65c-4.89,0-9.79.1-14.68.08a2.84,2.84,0,0,1-3.11-3.18v-26c0-2,1-3.1,3.11-3.08C164.65,119.06,169.54,119.08,174.43,119.11Z"
        fill="#02c0f9" />
    <path d="M205.31,213h-7.24V198.26h7.23Q205.3,205.63,205.31,213Z" fill="#9be6fb" />
    <path d="M198.1,151.31l7.15,0q0,7.28.05,14.54h-7.22Q198.1,158.6,198.1,151.31Z" fill="#95e5fb" />
    <path
        d="M205.3,55.75c-.1,2.2-1.08,3.53-2.91,3.94s-3.2-.51-4.08-2.21A34,34,0,0,0,196,53.63c-1.11-1.6-1.21-3.19.1-4.61a3.39,3.39,0,0,1,4.75-.65C203.6,50.19,204.74,52.94,205.3,55.75Z"
        fill="#9be6fb" />
    <path
        d="M68.88,232.77a37.14,37.14,0,0,1-5.27-2.71,3.34,3.34,0,0,1-.82-4.88c1.31-1.72,3.07-2,5.09-.9A12,12,0,0,0,71,225.54c2.46.54,3.87,1.94,3.7,3.93S72.71,232.88,68.88,232.77Z"
        fill="#9be6fb" />
    <path
        d="M205.29,89.16c0,.87,0,1.75,0,2.63a3.67,3.67,0,0,1-3.36,3.66,3.59,3.59,0,0,1-3.79-3.25,43.53,43.53,0,0,1,0-6.46,3.53,3.53,0,0,1,4-3.25A3.37,3.37,0,0,1,205.28,86C205.31,87.08,205.29,88.12,205.29,89.16Z"
        fill="#9be6fb" />
    <path
        d="M205.29,106.89c0,1,0,1.92,0,2.87a3.59,3.59,0,0,1-3.5,3.51,3.39,3.39,0,0,1-3.62-3.14,34.88,34.88,0,0,1,0-6.7,3.47,3.47,0,0,1,3.88-3.11,3.35,3.35,0,0,1,3.25,3.46C205.33,104.81,205.29,105.85,205.29,106.89Z"
        fill="#9be6fb" />
    <path
        d="M205.29,71.09c0,1,0,1.92,0,2.87a3.67,3.67,0,0,1-3.37,3.66,3.58,3.58,0,0,1-3.78-3.26,42.21,42.21,0,0,1,0-6.46,3.51,3.51,0,0,1,4-3.24,3.37,3.37,0,0,1,3.15,3.56C205.31,69.17,205.29,70.13,205.29,71.09Z"
        fill="#9be6fb" />
    <path
        d="M66.94,195.15a26.86,26.86,0,0,1,0,3.11,3.57,3.57,0,0,1-3.75,3.25A3.5,3.5,0,0,1,59.75,198c0-1.91-.07-3.83,0-5.74a3.63,3.63,0,0,1,3.62-3.69A3.7,3.7,0,0,1,67,192.28c.06.95,0,1.91,0,2.87Z"
        fill="#9be6fb" />
    <path
        d="M59.74,213.06c0-1-.05-2.08,0-3.12a3.66,3.66,0,0,1,3.48-3.59,3.61,3.61,0,0,1,3.68,3.38,46.11,46.11,0,0,1,0,6.22,3.59,3.59,0,0,1-7.17-.26C59.71,214.81,59.74,213.93,59.74,213.06Z"
        fill="#9be6fb" />
    <path d="M103.61,225.6a28.77,28.77,0,0,1,3.35,0,3.58,3.58,0,0,1,0,7.15,49.65,49.65,0,0,1-6.22,0,3.59,3.59,0,0,1,.27-7.18c.87,0,1.75,0,2.63,0Z" fill="#9be6fb" />
    <path
        d="M121.49,225.6a24.94,24.94,0,0,1,3.35,0,3.4,3.4,0,0,1,3.26,3.51,3.33,3.33,0,0,1-3.16,3.59,38.58,38.58,0,0,1-6.45,0,3.59,3.59,0,0,1,.37-7.17c.87,0,1.75,0,2.63,0Z"
        fill="#9be6fb" />
    <path d="M139.25,225.59a28.8,28.8,0,0,1,3.35,0,3.58,3.58,0,0,1,0,7.14,47.81,47.81,0,0,1-6.22,0,3.59,3.59,0,0,1,.22-7.18c.88,0,1.76,0,2.64,0Z" fill="#9be6fb" />
    <path
        d="M85.79,232.78a23,23,0,0,1-3.11,0A3.57,3.57,0,0,1,79.5,229a3.49,3.49,0,0,1,3.61-3.36c1.91-.05,3.83-.08,5.74,0a3.62,3.62,0,0,1,3.63,3.67,3.68,3.68,0,0,1-3.57,3.51c-1,.08-2.08,0-3.12,0Z"
        fill="#9be6fb" />
    <path d="M180.65,53.47l0-7.19c2,0,4,0,6,0,2.38,0,4,1.39,4.09,3.43s-1.53,3.62-3.89,3.76C184.82,53.59,182.73,53.48,180.65,53.47Z" fill="#9be6fb" />
    <path d="M156.55,225.58v7.22c-.71,0-1.43,0-2.14,0a3.61,3.61,0,0,1-3.6-3.86c.11-2,1.59-3.28,3.84-3.35C155.28,225.56,155.92,225.58,156.55,225.58Z" fill="#9be6fb" />
    <path
        d="M54.58,98.92q12,0,24.09,0c1,0,2.16-.09,2.78.43,1,.83,2.21,2.12,2.23,3.23s-1.12,2.51-2.13,3.28c-.77.59-2.14.54-3.25.54q-23.85,0-47.7,0a11.49,11.49,0,0,1-1.44,0c-2.74-.31-4.15-1.63-4.1-3.81s1.61-3.63,4.46-3.65C37.87,98.89,46.23,98.92,54.58,98.92Z"
        fill="#d8ab60" />
    <path
        d="M54.45,117.09c8.5,0,17-.08,25.51.1a4.88,4.88,0,0,1,3.52,2.14c.48.86,0,2.72-.68,3.66a4.39,4.39,0,0,1-3.18,1.28q-25.15.12-50.32,0c-2.75,0-4.31-1.57-4.24-3.86s1.46-3.34,4.35-3.34Q41.92,117.07,54.45,117.09Z"
        fill="#d8ab60" />
    <path
        d="M54.44,142.27H29.9c-3.15,0-4.78-1.16-4.84-3.41C25,136.42,26.68,135,29.8,135q24.78,0,49.57,0c2.06,0,3.66.62,4.33,2.69a3.12,3.12,0,0,1-1.5,3.93,6.31,6.31,0,0,1-3,.6C71,142.29,62.7,142.27,54.44,142.27Z"
        fill="#d8ab60" />
    <path
        d="M54.45,81Q67,81,79.51,81c2.55,0,4.11,1.21,4.32,3.24.24,2.23-1.46,3.94-4.09,4-4.89,0-9.79,0-14.69,0q-17.58,0-35.17,0c-1,0-2.42,0-2.94-.6a5.94,5.94,0,0,1-1.66-3.82c.17-2,1.87-2.8,3.88-2.8,7.15,0,14.29,0,21.44,0Z"
        fill="#d8ab60" />
    <path
        d="M40.22,153.24c3.68,0,7.36,0,11,0,2.49,0,4.07,1.33,4.14,3.36.07,2.19-1.45,3.8-4,3.83q-11.16.12-22.33,0c-2.56,0-4.07-1.64-4-3.84s1.53-3.33,4.11-3.35C32.85,153.22,36.53,153.24,40.22,153.24Z"
        fill="#d8ab60" />
    <path
        d="M122.88,24.63c5.55-.89,11.05-1.22,16.44.9,9.79,3.88,15.36,11,16.82,21.46,2,14.53-8.79,27.4-22.86,29-3.4.4-7-.48-10.43-.77-8.62-3-14.66-8.57-17.57-17.36-4.19-12.67,2.73-27.41,15.17-32.24C121.27,25.34,122.07,25,122.88,24.63Zm6.73,44.28a18.9,18.9,0,0,0,17.79-27c-3.35-7-11.57-11.84-18.24-10.64-9.91.27-17.9,8.77-17.84,19C111.38,60.27,119.79,68.84,129.61,68.91Z"
        fill="#8db8c3" />
    <path d="M173.47,185.65c-3.5-2.06-3.5-4.72,0-7.21l54.58,0c2,0,3.88.6,4.25,2.71a5.25,5.25,0,0,1-1.18,3.73c-.54.66-2,.75-3.08.76Q200.76,185.68,173.47,185.65Z"
        fill="#c99c54" />
    <path
        d="M173.51,138.71c-3.56-2.3-3.58-5.05,0-7.18q27.45,0,54.92,0c1.77,0,3.38.39,3.85,2.17a4.58,4.58,0,0,1-.51,3.5,4.67,4.67,0,0,1-3.3,1.51C210.13,138.78,191.82,138.73,173.51,138.71Z"
        fill="#95e5fb" />
    <path d="M173.47,232.82c-3.38-2.71-3.37-5.33,0-7.24q27.32,0,54.63,0c3.72,0,5.53,2.37,4.07,5.31-.9,1.8-2.56,1.92-4.32,1.92q-26.36,0-52.71,0Z" fill="#d73d24" />
    <path
        d="M96.91,184.45c-1-1.1-2-2.22-3.12-3.27-1.4-1.38-2.37-2.86-1.36-4.86s2.87-2.27,4.9-1.78l9.2,9.81c1.07-1,1.71-1.56,2.31-2.16,3.35-3.34,6.67-6.7,10-10,2-1.93,4.16-2.09,5.7-.5s1.44,3.59-.46,5.51q-7,7.11-14.11,14.12c-2.15,2.12-3.89,2.09-6.05,0C101.59,189.05,99.26,186.74,96.91,184.45Z"
        fill="#f5fdfb" />
    <path
        d="M129.16,31.29c6.67-1.2,14.89,3.59,18.24,10.64a18.9,18.9,0,0,1-17.79,27c-.22-.41-.33-.94-.67-1.2-10.5-8.12-11.64-24.73-1.52-33.94A13.77,13.77,0,0,0,129.16,31.29Zm1,26.59a7.84,7.84,0,1,0-7.7-7.92A8,8,0,0,0,130.12,57.88Z"
        fill="#3f5a5a" />
    <path
        d="M129.16,31.29a13.77,13.77,0,0,1-1.74,2.48c-10.12,9.21-9,25.82,1.52,33.94.34.26.45.79.67,1.2-9.82-.07-18.23-8.64-18.29-18.64C111.26,40.06,119.25,31.56,129.16,31.29Z"
        fill="#394a4a" />
    <path d="M130.12,57.88a7.84,7.84,0,1,1,8-7.63A7.92,7.92,0,0,1,130.12,57.88Z" fill="#f5fdfb" />
</svg>