<svg data-name="Layer 1" id="Layer_1" viewBox="0 0 239.9 239.25" xmlns="http://www.w3.org/2000/svg">
    <path
        d="M239.9,182.86c-.8,3.51-1.43,7.07-2.42,10.53-1.65,5.75-3.8,11.31-7.42,16.17-2.07,1-4.1,2.13-6.2,3.08a64,64,0,0,1-39.14,4.87,57.51,57.51,0,0,1-26.64-12.21c-3.51-2.91-6.7-6.21-10-9.33a28.34,28.34,0,0,1,8-20.35,27.57,27.57,0,0,1,23.35-8.76A28.76,28.76,0,0,1,205.7,195c.06,2.37,1.9,4.26,3.89,4.14a4,4,0,0,0,3.51-4.05,39.07,39.07,0,0,0-4.52-17,36.13,36.13,0,0,0-52-12.43c-7.44,5-12,12-14.61,20.49a2.71,2.71,0,0,1-.47-.49,55,55,0,0,1-6.66-19.23,61.74,61.74,0,0,1,3.43-33.8c1.13-2.86,2.35-5.69,3.53-8.53l.09.13.52-.66a8.94,8.94,0,0,1,.88-.75,61.84,61.84,0,0,1,32.64-9.71c4.26-.06,8.53.59,12.79.91,7,1.75,13.86,4,20.12,7.76,16.18,9.76,26,24,30,42.36.41,1.86.71,3.74,1.07,5.6Zm-49.3-27.18a6.13,6.13,0,0,0,6.16-6.05,6.08,6.08,0,0,0-12.16-.16A6.16,6.16,0,0,0,190.6,155.68Zm-21.48-5.8a6.47,6.47,0,0,0-6.09-6.23,6.63,6.63,0,0,0-6.06,6.07c-.07,3,2.93,5.94,6,6A6.06,6.06,0,0,0,169.12,149.88Z"
        fill="#f34545" />
    <path
        d="M188.68,114c-4.26-.32-8.53-1-12.79-.91a61.84,61.84,0,0,0-32.64,9.71,8.94,8.94,0,0,0-.88.75l-.52.66-.09-.13-2.12,1.14q-31.39,0-62.77-.08a2.48,2.48,0,0,0-2.59,1.8q-9.24,21-18.53,41.9c-1.83,4.14-4.69,7-9.3,7.61-6.21.88-12.23-3.13-13.23-9.09a36.88,36.88,0,0,1-.44-6c0-13.74-.06-27.48,0-41.22a3.84,3.84,0,0,0-2.19-3.86A60.69,60.69,0,0,1,7,91.32,60.34,60.34,0,0,1,.31,68.86,61.57,61.57,0,0,1,13.22,24.22,54.6,54.6,0,0,1,31.73,8.41c1,3.41,1.88,6.84,2.89,10.24a109.79,109.79,0,0,0,14.31,30.5c2.06,3,4.65,5.71,7,8.55,0,4.59.06,9.18.12,13.78s2.47,6.91,7,6.94c5.06,0,10.12,0,15.19,0,.44.49.8,1.16,1.35,1.45,7,3.71,13.77,7.82,21,10.87,5.85,2.48,12.25,3.66,18.41,5.42,2.7,3.21,5.48,6.37,8.09,9.65,3.77,4.73,8.52,6.57,13.54,5.06s7.76-5.72,7.92-12.37c4.54-.5,9.15-.67,13.61-1.56a114,114,0,0,0,30-10.17,126.3,126.3,0,0,0,22.46-15,59,59,0,0,1-16,33.07C195.48,108.11,192,111,188.68,114Z"
        fill="#a5d1e2" />
    <path
        d="M214.55,71.79a126.3,126.3,0,0,1-22.46,15,114,114,0,0,1-30,10.17c-4.46.89-9.07,1.06-13.61,1.56-1.35-2.5-2.52-5.12-4.1-7.46s-3.47-4.19-5.19-6.3-1-4.4,1.72-5.07a9.61,9.61,0,0,1,1.82-.36c9.45-.5,16.64-9.28,16.53-17.69-.13-9.51,0-19,0-28.54a19.5,19.5,0,0,0-4.69-12.84,20.8,20.8,0,0,0-17-8.42c-13.65-.1-27.3,0-41,0-7.17,0-10.19,2.19-12.3,8.93-1-4.32-3.65-6.57-7.93-6.59-2.54,0-5.09,0-7.64.06-2.19,0-4.38-.09-6.56,0a5.64,5.64,0,0,0-5.32,3.22,11.46,11.46,0,0,0-.86,4.51C56,33.81,56,45.75,55.93,57.7c-2.35-2.84-4.94-5.51-7-8.55a109.79,109.79,0,0,1-14.31-30.5c-1-3.4-1.93-6.83-2.89-10.24a42.74,42.74,0,0,1,17-6.83,90,90,0,0,1,16-1.46q44.76-.19,89.52,0c14.89.08,27.93,5.41,39.24,15.08a61.6,61.6,0,0,1,20.91,36.05A58.71,58.71,0,0,1,215,70.71,4.72,4.72,0,0,1,214.55,71.79Z"
        fill="#bfdeea" />
    <path
        d="M139.64,125.23l2.12-1.14c-1.18,2.84-2.4,5.67-3.53,8.53a61.74,61.74,0,0,0-3.43,33.8,55,55,0,0,0,6.66,19.23,2.71,2.71,0,0,0,.47.49c-.31,3.22-.66,6.43-.93,9.65-.14,1.77.93,2.68,2.52,3.11,1.87.52,3.41-.49,4.53-2.93,3.33,3.12,6.52,6.42,10,9.33a57.51,57.51,0,0,0,26.64,12.21,64,64,0,0,0,39.14-4.87c2.1-.95,4.13-2,6.2-3.08a56,56,0,0,1-18.59,19.13c-17.95,11.41-37.17,13.78-57.05,6.12-20.31-7.83-33.21-22.73-38.67-43.8-6.16-23.83,3.18-50,22.86-64.85C139,125.88,139.3,125.54,139.64,125.23Z"
        fill="#d53131" />
    <path
        d="M148.05,196c-1.12,2.44-2.66,3.45-4.53,2.93-1.59-.43-2.66-1.34-2.52-3.11.27-3.22.62-6.43.93-9.65,2.58-8.47,7.17-15.5,14.61-20.49a36.13,36.13,0,0,1,52,12.43,39.07,39.07,0,0,1,4.52,17,4,4,0,0,1-3.51,4.05c-2,.12-3.83-1.77-3.89-4.14A28.85,28.85,0,0,0,156,175.62,28.34,28.34,0,0,0,148.05,196Z"
        fill="#af2727" />
    <path d="M190.6,155.68a6.16,6.16,0,0,1-6-6.21,6.08,6.08,0,0,1,12.16.16A6.13,6.13,0,0,1,190.6,155.68Z" fill="#b02727" />
    <path d="M169.12,149.88a6.06,6.06,0,0,1-6.13,5.8c-3.09,0-6.09-3-6-6a6.63,6.63,0,0,1,6.06-6.07A6.47,6.47,0,0,1,169.12,149.88Z" fill="#b02727" />
    <path d="M141.85,124.22l.52-.66Z" fill="#d53131" />
    <path
        d="M154.59,20.22a19.5,19.5,0,0,1,4.69,12.84c0,9.51-.1,19,0,28.54.11,8.41-7.08,17.19-16.53,17.69a9.61,9.61,0,0,0-1.82.36c-2.72.67-3.49,2.89-1.72,5.07s3.68,4,5.19,6.3,2.75,5,4.1,7.46c-.16,6.65-2.85,10.84-7.92,12.37s-9.77-.33-13.54-5.06c-2.61-3.28-5.39-6.44-8.09-9.65-3.71-4.55-7.46-9.07-11.11-13.68-1.61-2-3.45-3.19-6.15-2.82a9.19,9.19,0,0,1-2.45-.33c.2-1.93.24-3.89.62-5.78,2.92-14.54,9.51-27,20.69-37a63.51,63.51,0,0,1,22-13C146.47,22.22,150.56,21.32,154.59,20.22Z"
        fill="#f1ba88" />
    <path
        d="M55.93,57.7c0-12,0-23.89.14-35.83a11.46,11.46,0,0,1,.86-4.51,5.64,5.64,0,0,1,5.32-3.22c2.18-.06,4.37,0,6.56,0q0,21.63,0,43.24c0,5.41,2.82,8.2,8.2,8.25,2.42,0,4.83,0,7.25,0l.16,4.75c-.19,4.13-2.24,6.82-6.24,8-5.07,0-10.13,0-15.19,0-4.49,0-6.9-2.46-7-6.94S56,62.29,55.93,57.7Z"
        fill="#06638d" />
    <path
        d="M78.2,78.4c4-1.15,6-3.84,6.24-8,.84,4,2.89,7.22,7,8.3,2.5.66,5.25.42,7.88.58a9.19,9.19,0,0,0,2.45.33c2.7-.37,4.54.78,6.15,2.82,3.65,4.61,7.4,9.13,11.11,13.68-6.16-1.76-12.56-2.94-18.41-5.42-7.25-3-14-7.16-21-10.87C79,79.56,78.64,78.89,78.2,78.4Z"
        fill="#bfdde9" />
    <path
        d="M99.27,79.31c-2.63-.16-5.38.08-7.88-.58-4.06-1.08-6.11-4.29-7-8.3,0-1.58-.11-3.16-.16-4.75a10.93,10.93,0,0,0,.13-1.15l0-43.83c2.11-6.74,5.13-8.93,12.3-8.93,13.66,0,27.31-.07,41,0a20.8,20.8,0,0,1,17,8.42c-4,1.1-8.12,2-12.06,3.34a63.51,63.51,0,0,0-22,13c-11.18,10-17.77,22.43-20.69,37C99.51,75.42,99.47,77.38,99.27,79.31Z"
        fill="#e1a66f" />
    <path
        d="M84.38,20.7l0,43.83a10.93,10.93,0,0,1-.13,1.15c-2.42,0-4.83,0-7.25,0-5.38,0-8.19-2.84-8.2-8.25q0-21.61,0-43.24c2.55,0,5.1-.07,7.64-.06C80.73,14.13,83.42,16.38,84.38,20.7Z"
        fill="#1b86b2" />
</svg>