<svg data-name="Layer 1" id="Layer_1" viewBox="0 0 202.33 231.55" xmlns="http://www.w3.org/2000/svg">
    <path
        d="M128.36,0a5.13,5.13,0,0,1,2.16,4.83c-.11,1.87,0,3.76,0,6,4,0,7.86-.06,11.75,0a13.11,13.11,0,0,1,12.52,9.29,18.78,18.78,0,0,1,.7,5.34q.08,30.06,0,60.14V88.1c7.06-.81,11.73,2.23,15.1,8.14,9.76,17.11,19.7,34.12,29.53,51.19,4.36,7.58,2.06,16.16-5.39,19.53a17.6,17.6,0,0,1-6.77,1.31c-10,.13-20,0-30.07,0h-2.4v48.52c0,9.18-5.58,14.71-14.81,14.71H15c-9.46,0-15-5.53-15-15V25.68C0,16.3,5.49,10.81,14.86,10.79H25.11c0-2,.1-3.82,0-5.67a5.61,5.61,0,0,1,2-5.12h2.71a5.2,5.2,0,0,1,2.16,5.05c-.1,1.85,0,3.71,0,5.59H123.7c0-1.93.1-3.74,0-5.52a5.58,5.58,0,0,1,2-5.12Zm27.07,95.38c-1.17,1.1-2.67,2-3.45,3.34q-15.24,26.11-30.28,52.33c-3,5.27,0,10.44,6,10.46,10.24,0,20.49,0,30.73,0q14.13,0,28.25-.08c3.17.42,6,0,7.91-3s.92-5.54-.66-8.24c-5.06-8.63-10-17.32-15-26s-9.85-17.07-14.8-25.59C162,95,159.09,93.92,155.43,95.38ZM25.11,17.59c-3.78,0-7.25,0-10.71,0-4.88,0-7.59,2.67-7.59,7.51q0,96.1,0,192.2c0,4.7,2.78,7.45,7.45,7.45q63.3,0,126.62,0c5.2,0,7.8-2.61,7.81-7.75q0-23.28,0-46.58c0-.65-.07-1.3-.12-2.12-7.45,0-14.75.13-22,0-5.56-.13-9.53-3-11.76-8.08-1.93-4.41-1.23-8.63,1.15-12.73q13.42-23.11,26.75-46.29c1.59-2.74,3.3-5.39,4.83-8.15a7.62,7.62,0,0,0,1.16-3.42c.07-21.26.05-42.51.05-63.77,0-.67,0-1.36,0-2-.27-3.05-2.54-5.85-5.49-6-4.17-.26-8.38-.07-12.68-.07,0,2.43.06,4.68,0,6.93S129,28.34,127,28.32s-3.27-1.47-3.32-3.78,0-4.49,0-6.84H31.91v3.24c0,1.13,0,2.26,0,3.39-.09,2.44-1.41,4-3.4,4s-3.34-1.49-3.38-3.95C25.08,22.2,25.11,20,25.11,17.59Z"
        fill="#070808" />
    <path
        d="M25.11,17.59c0,2.44,0,4.61,0,6.78,0,2.46,1.36,4,3.38,3.95s3.31-1.55,3.4-4c0-1.13,0-2.26,0-3.39V17.7H123.7c0,2.35,0,4.6,0,6.84s1.37,3.76,3.32,3.78,3.36-1.45,3.44-3.71,0-4.5,0-6.93c4.3,0,8.51-.19,12.68.07,3,.18,5.22,3,5.49,6,.06.67,0,1.36,0,2,0,21.26,0,42.51-.05,63.77A7.62,7.62,0,0,1,147.48,93c-1.53,2.76-3.24,5.41-4.83,8.15q-13.38,23.14-26.75,46.29c-2.38,4.1-3.08,8.32-1.15,12.73,2.23,5.07,6.2,8,11.76,8.08,7.3.17,14.6,0,22,0,.05.82.12,1.47.12,2.12q0,23.29,0,46.58c0,5.14-2.61,7.75-7.81,7.75q-63.31,0-126.62,0c-4.67,0-7.45-2.75-7.45-7.45q0-96.11,0-192.2c0-4.84,2.71-7.49,7.59-7.51C17.86,17.58,21.33,17.59,25.11,17.59ZM77.79,67.45h48.13c3.5,0,4.56-1.06,4.57-4.59q0-9.83,0-19.66c0-3.51-1.1-4.6-4.61-4.6q-48.12,0-96.26,0c-3.43,0-4.5,1-4.51,4.41q0,9.84,0,19.66c0,3.85.94,4.79,4.77,4.79ZM89.7,210.83c9.79,0,19.58,0,29.37,0,2.19,0,3.56-1.28,3.67-3.17a3.5,3.5,0,0,0-3.55-3.6c-.52,0-1,0-1.58,0H61.81a10.52,10.52,0,0,0-2.25.12,3.16,3.16,0,0,0-2.73,3.14c-.12,2.22,1.3,3.52,4,3.53C70.42,210.85,80.06,210.83,89.7,210.83Zm-.07-105.46h28.69c2.82,0,4.41-1.23,4.42-3.37s-1.59-3.41-4.39-3.41H61.2c-2.87,0-4.37,1.18-4.38,3.38s1.5,3.4,4.35,3.4Zm-53.88,0c2.33,0,4.66,0,7,0,2.52-.05,3.77-1.25,3.8-3.73q.06-7,0-14c0-2.41-1.15-3.71-3.53-3.76q-7.21-.15-14.43,0c-2.29,0-3.42,1.29-3.45,3.6q-.09,7.09,0,14.2c0,2.48,1.3,3.62,3.86,3.66C31.24,105.4,33.5,105.38,35.75,105.38Zm10.8,24.53c0-2.33,0-4.66,0-7,0-2.53-1.21-3.85-3.66-3.88q-7.1-.11-14.21,0a3.24,3.24,0,0,0-3.53,3.53q-.11,7.22,0,14.44a3.25,3.25,0,0,0,3.53,3.54q7.09.1,14.21,0c2.44,0,3.62-1.35,3.66-3.87C46.58,134.42,46.55,132.16,46.55,129.91Zm-10.9,24.3c-2.25,0-4.51,0-6.76,0-2.42,0-3.72,1.2-3.75,3.52-.07,4.81,0,9.63,0,14.44a3.16,3.16,0,0,0,3.32,3.49q7.34.15,14.66,0c2.26-.05,3.4-1.36,3.42-3.63q.07-7.11,0-14.21c0-2.34-1.3-3.57-3.67-3.62S38.06,154.21,35.65,154.21Zm0,35.21c-2.33,0-4.67,0-7,0s-3.48,1.23-3.51,3.52q-.09,7.23,0,14.46a3.11,3.11,0,0,0,3.39,3.39q7.23.09,14.46,0a3.2,3.2,0,0,0,3.51-3.51q.09-7.12,0-14.24c0-2.37-1.26-3.57-3.65-3.63S38.06,189.41,35.65,189.42Zm47.9-20.49q-11,0-21.93,0a10.56,10.56,0,0,0-2.25.15,3.33,3.33,0,0,0-.17,6.42,10.41,10.41,0,0,0,2.68.23q21.6,0,43.19,0c.9,0,2.05.18,2.63-.29a6.19,6.19,0,0,0,2.34-3.17c.29-1.56-.82-2.85-2.54-3.2a11.11,11.11,0,0,0-2.24-.14Q94.4,168.91,83.55,168.93ZM80.4,140.57c6.7,0,13.39,0,20.09,0,2.59,0,4.12-1.34,4.09-3.46s-1.44-3.26-4-3.32c-1,0-2.1,0-3.16,0-12.11,0-24.22,0-36.33,0-2,0-3.64.4-4.2,2.55-.64,2.38,1,4.23,3.85,4.25C67.31,140.6,73.86,140.57,80.4,140.57ZM74.13,90.66c4.52,0,9,0,13.56,0,2.7,0,4.12-1.26,4.08-3.44s-1.41-3.33-4-3.34q-13.44-.06-26.89,0c-2.71,0-4.1,1.28-4.07,3.47s1.43,3.3,4.2,3.31C65.39,90.68,69.76,90.66,74.13,90.66Zm.11,35.15H87.35c2.92,0,4.39-1.13,4.42-3.33S90.29,119,87.45,119Q74.22,119,61,119c-2.68,0-4.15,1.23-4.18,3.37s1.38,3.4,4.08,3.42C65.35,125.83,69.79,125.81,74.24,125.81Zm.31,63.59c-4.52,0-9,0-13.57,0-2.76,0-4.14,1.15-4.16,3.33s1.46,3.44,4.1,3.45q13.33,0,26.67,0c2.68,0,4.16-1.25,4.18-3.39s-1.43-3.38-4.12-3.39C83.28,189.38,78.92,189.4,74.55,189.4Zm0-35.18c-4.52,0-9,0-13.55,0-2.69,0-4.16,1.21-4.17,3.35s1.46,3.42,4.1,3.42q13.32,0,26.65,0c2.67,0,4.16-1.23,4.18-3.35s-1.48-3.41-4.11-3.42C83.28,154.2,78.92,154.22,74.55,154.22Z"
        fill="#e8f4fd" />
    <path
        d="M186.69,161.44q-14.13,0-28.25.08c-10.24,0-20.49,0-30.73,0-6.06,0-9-5.19-6-10.46Q136.78,124.86,152,98.72c.78-1.33,2.28-2.24,3.45-3.34a4.9,4.9,0,0,1,1,.91c3.43,5.9,6.83,11.82,10.25,17.74,6,10.39,12.06,20.76,18,31.19,1.87,3.28,4.59,6.36,3.84,10.54A43.48,43.48,0,0,1,186.69,161.44Zm-25.29-36c0-3.69,0-7.38,0-11.07,0-2.7-1.2-4.17-3.32-4.21s-3.45,1.49-3.46,4.11q0,11.07,0,22.14c0,2.57,1.4,4.18,3.47,4.14s3.29-1.61,3.31-4.26C161.41,132.67,161.4,129.06,161.4,125.44Zm0,24.52a3.42,3.42,0,0,0-3.45-3.37,3.48,3.48,0,0,0-3.31,3.54,3.39,3.39,0,0,0,3.36,3.22A3.33,3.33,0,0,0,161.39,150Z"
        fill="#fdd05a" />
    <path
        d="M186.69,161.44a43.48,43.48,0,0,0,1.8-5.68c.75-4.18-2-7.26-3.84-10.54-6-10.43-12-20.8-18-31.19-3.42-5.92-6.82-11.84-10.25-17.74a4.9,4.9,0,0,0-1-.91c3.66-1.46,6.57-.41,8.69,3.24q7.42,12.78,14.8,25.59c5,8.67,10,17.36,15,26,1.58,2.7,2.47,5.34.66,8.24S189.86,161.86,186.69,161.44Z"
        fill="#dcaa3f" />
    <path
        d="M77.79,67.45H29.88c-3.83,0-4.77-.94-4.77-4.79q0-9.82,0-19.66c0-3.37,1.08-4.41,4.51-4.41q48.14,0,96.26,0c3.51,0,4.6,1.09,4.61,4.6q0,9.84,0,19.66c0,3.53-1.07,4.59-4.57,4.59Zm39.22-22a10.83,10.83,0,0,0-1.12-.1H34.09c-.66,0-1.32.08-2.06.12V60.65h59c8.66,0,17.32,0,26-.06h6.55V45.49Z"
        fill="#070808" />
    <path
        d="M89.7,210.83c-9.64,0-19.28,0-28.92,0-2.65,0-4.07-1.31-4-3.53a3.16,3.16,0,0,1,2.73-3.14,10.52,10.52,0,0,1,2.25-.12h55.8c.53,0,1.06,0,1.58,0a3.5,3.5,0,0,1,3.55,3.6c-.11,1.89-1.48,3.16-3.67,3.17C109.28,210.85,99.49,210.83,89.7,210.83Z"
        fill="#070808" />
    <path d="M89.63,105.37H61.17c-2.85,0-4.35-1.19-4.35-3.4s1.51-3.38,4.38-3.38h57.15c2.8,0,4.4,1.27,4.39,3.41s-1.6,3.37-4.42,3.37Z" fill="#010101" />
    <path
        d="M35.75,105.38c-2.25,0-4.51,0-6.76,0-2.56,0-3.83-1.18-3.86-3.66q-.09-7.09,0-14.2c0-2.31,1.16-3.55,3.45-3.6q7.22-.16,14.43,0c2.38,0,3.51,1.35,3.53,3.76q.06,7,0,14c0,2.48-1.28,3.68-3.8,3.73C40.41,105.41,38.08,105.38,35.75,105.38ZM32,90.72v7.72h7.57V90.72Z"
        fill="#070808" />
    <path
        d="M46.55,129.91c0,2.25,0,4.51,0,6.77,0,2.52-1.22,3.84-3.66,3.87q-7.11.1-14.21,0A3.25,3.25,0,0,1,25.14,137q-.11-7.22,0-14.44A3.24,3.24,0,0,1,28.67,119q7.11-.11,14.21,0c2.45,0,3.63,1.35,3.66,3.88C46.58,125.25,46.55,127.58,46.55,129.91Zm-6.87-4H32.09v7.69h7.59Z"
        fill="#070808" />
    <path
        d="M35.65,154.21c2.41,0,4.82,0,7.22,0s3.64,1.28,3.67,3.62q.06,7.11,0,14.21c0,2.27-1.16,3.58-3.42,3.63q-7.32.15-14.66,0a3.16,3.16,0,0,1-3.32-3.49c0-4.81-.06-9.63,0-14.44,0-2.32,1.33-3.48,3.75-3.52C31.14,154.18,33.4,154.21,35.65,154.21Zm4,6.91h-7.6v7.7h7.6Z"
        fill="#070808" />
    <path
        d="M35.65,189.41c2.41,0,4.82,0,7.23,0s3.63,1.26,3.65,3.63q.07,7.13,0,14.24A3.2,3.2,0,0,1,43,210.8q-7.23.09-14.46,0a3.11,3.11,0,0,1-3.39-3.39q-.12-7.23,0-14.46c0-2.29,1.24-3.46,3.51-3.52S33.32,189.42,35.65,189.41Zm4,6.93H32v7.55h7.64Z"
        fill="#010101" />
    <path
        d="M83.55,168.93q10.86,0,21.71,0a11.11,11.11,0,0,1,2.24.14c1.72.35,2.83,1.64,2.54,3.2a6.19,6.19,0,0,1-2.34,3.17c-.58.47-1.73.29-2.63.29q-21.6,0-43.19,0a10.41,10.41,0,0,1-2.68-.23,3.33,3.33,0,0,1,.17-6.42,10.56,10.56,0,0,1,2.25-.15Q72.59,168.91,83.55,168.93Z"
        fill="#070808" />
    <path
        d="M80.4,140.57c-6.54,0-13.09,0-19.63,0-2.82,0-4.49-1.87-3.85-4.25.56-2.15,2.22-2.56,4.2-2.55,12.11,0,24.22,0,36.33,0,1.06,0,2.11,0,3.16,0,2.53.06,3.94,1.25,4,3.32s-1.5,3.46-4.09,3.46C93.79,140.59,87.1,140.57,80.4,140.57Z"
        fill="#070808" />
    <path
        d="M74.13,90.66c-4.37,0-8.74,0-13.11,0-2.77,0-4.16-1.14-4.2-3.31s1.36-3.46,4.07-3.47q13.44-.06,26.89,0c2.58,0,4,1.25,4,3.34s-1.38,3.42-4.08,3.44C83.17,90.68,78.65,90.66,74.13,90.66Z"
        fill="#070808" />
    <path d="M74.24,125.81c-4.45,0-8.89,0-13.34,0-2.7,0-4.11-1.24-4.08-3.42S58.32,119,61,119q13.23,0,26.45,0c2.84,0,4.35,1.24,4.32,3.46s-1.5,3.32-4.42,3.33Z"
        fill="#070808" />
    <path
        d="M74.55,189.4c4.37,0,8.73,0,13.1,0,2.69,0,4.14,1.24,4.12,3.39s-1.5,3.38-4.18,3.39q-13.34,0-26.67,0c-2.64,0-4.11-1.3-4.1-3.45s1.4-3.32,4.16-3.33C65.5,189.38,70,189.4,74.55,189.4Z"
        fill="#070808" />
    <path
        d="M74.55,154.22c4.37,0,8.73,0,13.1,0,2.63,0,4.14,1.29,4.11,3.42S90.25,161,87.58,161q-13.32,0-26.65,0c-2.64,0-4.12-1.27-4.1-3.42s1.48-3.34,4.17-3.35C65.51,154.2,70,154.22,74.55,154.22Z"
        fill="#010101" />
    <path
        d="M161.4,125.44c0,3.62,0,7.23,0,10.85,0,2.65-1.25,4.22-3.31,4.26s-3.46-1.57-3.47-4.14q0-11.07,0-22.14c0-2.62,1.33-4.14,3.46-4.11s3.3,1.51,3.32,4.21C161.41,118.06,161.4,121.75,161.4,125.44Z"
        fill="#010101" />
    <path d="M161.39,150a3.33,3.33,0,0,1-3.4,3.39,3.39,3.39,0,0,1-3.36-3.22,3.48,3.48,0,0,1,3.31-3.54A3.42,3.42,0,0,1,161.39,150Z" fill="#070808" />
    <path d="M117.05,60.58c-8.66,0-17.32.06-26,.06H32V45.51c.74,0,1.4-.12,2.06-.12h81.8a10.83,10.83,0,0,1,1.12.1Q117,53,117.05,60.58Z" fill="#fdd05a" />
    <path d="M117.05,60.58q0-7.55,0-15.09h6.59V60.58Z" fill="#dcaa3f" />
    <path d="M32,90.72h7.57v7.72H32Z" fill="#f5337d" />
    <path d="M39.68,126v7.69H32.09V126Z" fill="#f5337d" />
    <path d="M39.68,161.12v7.7h-7.6v-7.7Z" fill="#f5337d" />
    <path d="M39.66,196.34v7.55H32v-7.55Z" fill="#fc3580" />
</svg>