<svg data-name="Layer 1" id="Layer_1" viewBox="0 0 197.43 231.71" xmlns="http://www.w3.org/2000/svg">
    <path
        d="M197.43,0q0,16.2-.07,32.41c0,1.05-.05,2.1-.08,3.15-.9,0-1.8.11-2.7.11H2.9c-.9,0-1.81-.07-2.71-.11Q.15,19.81.11,4.05c0-1.35,0-2.7-.07-4ZM76.35,21.81c10.11,0,20.21,0,30.32,0,1.71,0,3.15-.3,4-2,1.23-2.61-.67-4.88-4.14-4.88q-30,0-60,0c-3,0-4.51,1.21-4.46,3.55s1.41,3.3,4.43,3.3Q61.41,21.83,76.35,21.81ZM128,22.4h8.05V14.54H128Zm20.6-7.87v7.83h7.83V14.53Zm20.32,7.84h7.93V14.6h-7.93Z"
        fill="#6f6ffe" />
    <path
        d="M.19,35.56c.9,0,1.81.11,2.71.11H194.58c.9,0,1.8-.07,2.7-.11.05.9.13,1.81.13,2.71q0,78.28,0,156.59c0,3,0,3-2.9,3H145a53,53,0,0,0,1.33-23.1c8.3,0,16.59,0,24.88,0,.92,0,2.22-.15,2.65-.74A5.36,5.36,0,0,0,175,170.4c-.3-1.84-1.91-2.49-3.79-2.48-8.89,0-17.79,0-26.69,0a54.28,54.28,0,0,0-12.37-19.43l37.55-.06a17.13,17.13,0,0,0,2,0c2.26-.31,3.59-1.72,3.53-3.69s-1.36-3.17-3.51-3.47a11.91,11.91,0,0,0-1.58,0q-22.52,0-45,0a15.08,15.08,0,0,0-2.38.37,50.59,50.59,0,0,0-22.32-6.3,49.51,49.51,0,0,0-25.71,6.3,17.89,17.89,0,0,0-2.6-.37q-19.47,0-38.93,0c-2.34,0-4.69-.07-7,0-2.58.1-4,1.5-3.94,3.69.05,2,1.56,3.34,4,3.5.61,0,1.21,0,1.81,0l37.35.06A53.75,53.75,0,0,0,53,168q-13.35,0-26.69,0c-2.43,0-4,1.34-4,3.33s1.58,3.46,4.07,3.46q12.44,0,24.87,0a53,53,0,0,0,1.34,23.1c-16.6,0-33.19,0-49.79,0-1.93,0-2.73-.31-2.73-2.54Q.11,116.56.06,37.82C.06,37.07.14,36.31.19,35.56ZM26.05,62.19V118H80V62.19ZM140.17,115q-15.49,0-31,0c-2.42,0-4.14,1.42-4.07,3.28.08,2.1,1.7,3.51,4.16,3.51h61.3c2.8,0,4.28-1.26,4.24-3.52s-1.14-3.27-4.1-3.28Zm0-49.33q15.15,0,30.3,0c2.88,0,4.36-1.17,4.37-3.39,0-2.5-1.09-3.41-4.19-3.41H151.17c-14.1,0-28.2,0-42.29,0-1.66,0-3,.56-3.35,2.06a3.9,3.9,0,0,0,.53,3.24,6,6,0,0,0,3.77,1.47C119.93,65.68,130,65.63,140.14,65.63ZM128.59,86.9q-9.82,0-19.66,0c-2.18,0-3.84,1.44-3.82,3.24,0,2.13,1.47,3.54,3.84,3.55q19.67,0,39.33,0a3.7,3.7,0,0,0,3.84-3.59c0-1.79-1.66-3.2-3.86-3.2Q138.42,86.89,128.59,86.9Zm39.11,0c-1.36,0-2.71,0-4.07,0a3.1,3.1,0,0,0-3.27,2.79c-.31,1.85.6,3.58,2.42,3.76a47.88,47.88,0,0,0,9.65,0c1.79-.2,2.66-1.83,2.37-3.77a2.94,2.94,0,0,0-3.26-2.74C170.26,86.89,169,86.9,167.7,86.9Z"
        fill="#dcdcdc" />
    <path
        d="M74.72,141.62a49.51,49.51,0,0,1,25.71-6.3,50.59,50.59,0,0,1,22.32,6.3l9.38,6.9A54.28,54.28,0,0,1,144.5,168q.9,3.39,1.78,6.78a53,53,0,0,1-1.33,23.1,52.45,52.45,0,0,1-9.7,17.19,47,47,0,0,1-30.78,16.32c-15.87,1.83-29.38-3.23-40.58-14.48a49.36,49.36,0,0,1-11.37-19,53,53,0,0,1-1.34-23.1c.59-2.26,1.19-4.52,1.78-6.78a53.75,53.75,0,0,1,12.39-19.43ZM95.19,174c0,2.94,0,5.88,0,8.82a4.27,4.27,0,0,0,2.13,3.94c5.64,3.63,11.22,7.33,16.85,11,2.41,1.56,4.35,1.37,5.56-.43,1.32-2,.75-3.79-1.75-5.42-4.66-3.05-9.32-6.1-14-9.07a3.16,3.16,0,0,1-1.7-3.08c.11-4.82.07-9.65,0-14.47,0-2.58-1.35-4.09-3.5-4.11s-3.53,1.49-3.57,4C95.16,168.12,95.19,171.05,95.19,174Z"
        fill="#febe4d" />
    <path
        d="M76.35,21.81q-14.94,0-29.87,0c-3,0-4.37-1-4.43-3.3S43.49,15,46.51,15q30,0,60,0c3.47,0,5.37,2.27,4.14,4.88-.8,1.69-2.24,2-4,2C96.56,21.79,86.46,21.81,76.35,21.81Z"
        fill="#fefefe" />
    <path d="M128,22.4V14.54h8.05V22.4Z" fill="#fefefe" />
    <path d="M148.61,14.53h7.83v7.83h-7.83Z" fill="#fefefe" />
    <path d="M168.93,22.37V14.6h7.93v7.77Z" fill="#fefefe" />
    <path d="M26.05,62.19H80V118H26.05Z" fill="#fe66ac" />
    <path d="M140.17,115h30.54c3,0,4.06.9,4.1,3.28s-1.44,3.52-4.24,3.52h-61.3c-2.46,0-4.08-1.41-4.16-3.51-.07-1.86,1.65-3.28,4.07-3.28Q124.68,114.94,140.17,115Z"
        fill="#fefefe" />
    <path
        d="M140.14,65.63c-10.11,0-20.21.05-30.31-.06a6,6,0,0,1-3.77-1.47,3.9,3.9,0,0,1-.53-3.24c.39-1.5,1.69-2.06,3.35-2.06,14.09.05,28.19,0,42.29,0h19.45c3.1,0,4.2.91,4.19,3.41,0,2.22-1.49,3.39-4.37,3.39Q155.29,65.65,140.14,65.63Z"
        fill="#fefefe" />
    <path
        d="M74.72,141.62l-9.37,6.9L28,148.46c-.6,0-1.2,0-1.81,0-2.4-.16-3.91-1.5-4-3.5-.06-2.19,1.36-3.59,3.94-3.69,2.33-.09,4.68,0,7,0q19.45,0,38.93,0A17.89,17.89,0,0,1,74.72,141.62Z"
        fill="#fefcf9" />
    <path
        d="M132.13,148.52l-9.38-6.9a15.08,15.08,0,0,1,2.38-.37q22.5,0,45,0a11.91,11.91,0,0,1,1.58,0c2.15.3,3.46,1.61,3.51,3.47s-1.27,3.38-3.53,3.69a17.13,17.13,0,0,1-2,0Z"
        fill="#fefcf9" />
    <path
        d="M128.59,86.9q9.84,0,19.67,0c2.2,0,3.87,1.41,3.86,3.2a3.7,3.7,0,0,1-3.84,3.59q-19.67,0-39.33,0c-2.37,0-3.82-1.42-3.84-3.55,0-1.8,1.64-3.24,3.82-3.24Q118.76,86.89,128.59,86.9Z"
        fill="#fefefe" />
    <path
        d="M146.28,174.73q-.89-3.39-1.78-6.78c8.9,0,17.8,0,26.69,0,1.88,0,3.49.64,3.79,2.48a5.36,5.36,0,0,1-1.17,3.56c-.43.59-1.73.74-2.65.74C162.87,174.75,154.58,174.73,146.28,174.73Z"
        fill="#fefefe" />
    <path d="M53,168c-.59,2.26-1.19,4.52-1.78,6.78q-12.43,0-24.87,0c-2.49,0-4.12-1.4-4.07-3.46s1.6-3.33,4-3.33Q39.62,167.93,53,168Z" fill="#fefefe" />
    <path
        d="M167.7,86.9c1.28,0,2.56,0,3.84,0a2.94,2.94,0,0,1,3.26,2.74c.29,1.94-.58,3.57-2.37,3.77a47.88,47.88,0,0,1-9.65,0c-1.82-.18-2.73-1.91-2.42-3.76a3.1,3.1,0,0,1,3.27-2.79C165,86.89,166.34,86.9,167.7,86.9Z"
        fill="#fefefe" />
    <path
        d="M95.19,174c0-2.94,0-5.87,0-8.81,0-2.55,1.42-4.06,3.57-4s3.48,1.53,3.5,4.11c0,4.82.08,9.65,0,14.47a3.16,3.16,0,0,0,1.7,3.08c4.71,3,9.37,6,14,9.07,2.5,1.63,3.07,3.46,1.75,5.42-1.21,1.8-3.15,2-5.56.43-5.63-3.64-11.21-7.34-16.85-11a4.27,4.27,0,0,1-2.13-3.94C95.22,179.87,95.19,176.93,95.19,174Z"
        fill="#fefcf9" />
</svg>