<svg data-name="Layer 1" id="Layer_1" viewBox="0 0 242.28 213.25" xmlns="http://www.w3.org/2000/svg">
    <path
        d="M189.51,19.69l29,0c.33.57.52,1.36,1,1.68,4.6,2.92,6.51,7.15,6.51,12.5q0,77.3,0,154.58c0,9.12-5.28,14.41-14.38,14.41H185.74q-86.22,0-172.42-.12c-2.75,0-5.73-1.31-8.17-2.74-2-1.19-3.4-3.46-5.06-5.25,0-2.34-.09-4.68-.09-7V34.8c0-9.64,5.42-15.12,15-15.13q18.9,0,37.82,0V39.42H76.38V19.68H165.9V39.43h23.61Zm20.84,86.51-72.69,0a3.36,3.36,0,0,0-.84.29V194a8.19,8.19,0,0,0,1.13.17q36.21,0,72.42-.06h8.4V106.2Zm0-16h8.42V56.31h-8.4c-.45,0-.9-.07-1.35-.07H25.75c-.7,0-1.39.09-2,.14V90.24H207.65C208.55,90.24,209.45,90.2,210.35,90.18ZM105.4,194.06V106.32H23.76v87.74Zm20.13-53c0-2.79-1.89-4.77-4.45-4.74s-4.34,2-4.35,4.83,1.91,5,4.58,4.85S125.57,143.93,125.53,141.09Zm0,18.06c0-2.78-1.8-4.82-4.32-4.88s-4.43,1.95-4.48,4.72c0,3,1.72,5,4.45,4.94S125.53,162,125.53,159.15Z"
        fill="#0266fe" />
    <path
        d="M.09,194.72c1.66,1.79,3,4.06,5.06,5.25,2.44,1.43,5.42,2.74,8.17,2.74q86.21.24,172.42.12h25.94c9.1,0,14.38-5.29,14.38-14.41q0-77.28,0-154.58c0-5.35-1.91-9.58-6.51-12.5-.49-.32-.68-1.11-1-1.68,4.31.11,8.68-.22,12.91.41,6.54,1,10.81,6.51,10.82,13.15q0,83.25,0,166.5a13.23,13.23,0,0,1-12.69,13.45c-1,.06-2,.08-3,.08q-105.55,0-211.1,0a22.32,22.32,0,0,1-6.12-.66A13,13,0,0,1,0,199.85C0,198.14.06,196.43.09,194.72Z"
        fill="#0063f7" />
    <path d="M76.38,19.68V39.42h-12q0-19.68,0-39.35h12Z" fill="#fe7f2b" />
    <path d="M177.91,39.43h-12V0h12Z" fill="#fe9854" />
    <path d="M64.37.07q0,19.68,0,39.35H52.82V.07Z" fill="#fe9855" />
    <path d="M177.91,39.43V0h11.6V39.43Z" fill="#fe7f2a" />
    <path
        d="M105.4,194.06H23.76V106.32H105.4Zm-41-39.38c2.51,0,5,.06,7.54,0a4.58,4.58,0,0,0,4.76-4.47,4.46,4.46,0,0,0-4.43-4.51c-5.12-.14-10.24-.13-15.35,0a4.39,4.39,0,0,0-4.45,4.47,4.43,4.43,0,0,0,4.65,4.52C59.52,154.74,61.94,154.68,64.37,154.68Zm0,31.83c2.42,0,4.85.07,7.27,0,2.9-.1,4.78-1.84,4.86-4.36s-1.84-4.58-4.85-4.64c-4.75-.09-9.51-.08-14.27,0-3.09,0-5,1.84-5,4.5s1.88,4.43,5,4.51C59.69,186.57,62,186.52,64.36,186.51Zm20-20.19v-7.56c-.15-2.9-1.84-4.72-4.44-4.75a4.27,4.27,0,0,0-4.51,4.38q-.21,7.7,0,15.39A4.28,4.28,0,0,0,80,178.13a4.35,4.35,0,0,0,4.38-4.52C84.43,171.18,84.35,168.75,84.36,166.32ZM64.57,122.81h7.55a4.6,4.6,0,0,0,4.54-4.42A4.37,4.37,0,0,0,72.17,114q-7.68-.16-15.36,0a4.25,4.25,0,0,0-4.35,4.49A4.37,4.37,0,0,0,57,122.78C59.53,122.87,62.05,122.8,64.57,122.81ZM53.76,134.42c0-2.53.08-5,0-7.57-.12-2.93-1.9-4.67-4.52-4.64S44.88,124,44.85,127q-.09,7.3,0,14.6c0,2.85,1.85,4.78,4.37,4.83s4.4-1.82,4.52-4.7C53.84,139.28,53.76,136.85,53.76,134.42Zm30.66-.15h0v-7c0-.18,0-.36,0-.54-.17-2.72-1.87-4.45-4.4-4.49a4.24,4.24,0,0,0-4.47,4.38q-.18,7.69,0,15.4A4.34,4.34,0,0,0,80,146.41a4.46,4.46,0,0,0,4.36-4.57C84.48,139.32,84.42,136.79,84.42,134.27ZM44.78,166h0v7.28c0,.18,0,.36,0,.53a4.32,4.32,0,0,0,4.54,4.31,4.21,4.21,0,0,0,4.25-4.3q.14-7.68,0-15.36a4.4,4.4,0,1,0-8.79,0C44.71,161,44.78,163.48,44.78,166Z"
        fill="#eae9ea" />
    <path
        d="M210.35,90.18c-.9,0-1.8.06-2.7.06H23.74V56.39c.62,0,1.31-.14,2-.14H209c.45,0,.9,0,1.35.07Q210.36,73.24,210.35,90.18Zm-32.7-21.47H156.57c-3.4,0-5.57,1.79-5.57,4.52s2.18,4.55,5.6,4.56q21.08,0,42.16,0c3.41,0,5.58-1.89,5.56-4.6s-2.13-4.47-5.59-4.48ZM64.56,77.8c6.76,0,13.52,0,20.27,0a12.69,12.69,0,0,0,2.69-.2,4.45,4.45,0,0,0-.72-8.85q-22.17-.08-44.33,0A4.45,4.45,0,0,0,38,72.9a4.57,4.57,0,0,0,3.92,4.74,14.19,14.19,0,0,0,2.69.15Z"
        fill="#fecb00" />
    <path
        d="M210.37,194.1q-36.21,0-72.42.06a8.19,8.19,0,0,1-1.13-.17V106.45a3.36,3.36,0,0,1,.84-.29l72.69,0Q210.37,150.15,210.37,194.1Zm-52.45-59.82c0,2.43,0,4.86,0,7.29.08,2.82,1.92,4.8,4.4,4.85a4.49,4.49,0,0,0,4.53-4.71q.18-7.43,0-14.85c-.07-2.93-1.94-4.69-4.53-4.65s-4.32,1.86-4.4,4.78C157.87,129.41,157.92,131.85,157.92,134.28Zm39.52,31.95c0-2.52.05-5,0-7.57-.07-2.8-1.7-4.53-4.22-4.64a4.18,4.18,0,0,0-4.66,4.18c-.17,5.22-.16,10.46,0,15.68a4.24,4.24,0,0,0,4.61,4.26c2.49-.09,4.2-1.87,4.28-4.61C197.49,171.1,197.44,168.67,197.44,166.23Zm-20.08,20.29h7.27c3-.15,5-2,4.94-4.58s-1.94-4.37-4.8-4.43q-7.28-.13-14.54,0c-2.88.06-4.74,1.91-4.77,4.43s1.87,4.47,4.9,4.57C172.69,186.57,175,186.52,177.36,186.52Zm-.1-31.84c2.52,0,5,0,7.56,0,2.84-.06,4.81-1.84,4.92-4.33a4.53,4.53,0,0,0-4.59-4.67q-7.56-.16-15.12,0a4.48,4.48,0,0,0-4.51,4.46,4.56,4.56,0,0,0,4.72,4.53C172.58,154.74,174.92,154.68,177.26,154.68Zm11.41-20.46c0,2.61-.08,5.22,0,7.82a4.38,4.38,0,1,0,8.75,0q.15-7.68,0-15.37a4.39,4.39,0,1,0-8.77,0C188.59,129.19,188.66,131.71,188.67,134.22Zm-11-11.41h7a5,5,0,0,0,.55,0,4.57,4.57,0,0,0,4.45-4.52,4.3,4.3,0,0,0-4.34-4.29q-7.69-.18-15.41,0a4.33,4.33,0,0,0-4.44,4.46,4.46,4.46,0,0,0,4.6,4.35C172.66,122.87,175.18,122.8,177.71,122.81Zm-19.87,43.05h0c0,2.61-.07,5.22,0,7.83a4.26,4.26,0,0,0,4.41,4.43,4.22,4.22,0,0,0,4.43-4.41q.16-7.56,0-15.12c-.05-2.91-1.89-4.63-4.55-4.57s-4.25,1.85-4.32,4.82C157.8,161.17,157.84,163.52,157.84,165.86Z"
        fill="#eae9ea" />
    <path d="M210.37,194.1q0-43.95,0-87.9h8.42v87.9Z" fill="#c6cacf" />
    <path d="M210.35,90.18q0-16.94,0-33.87h8.4V90.18Z" fill="#caab16" />
    <path d="M125.53,141.09c0,2.84-1.67,4.84-4.22,4.94s-4.58-1.92-4.58-4.85,1.79-4.8,4.35-4.83S125.49,138.3,125.53,141.09Z" fill="#eae9ea" />
    <path d="M125.53,159.15c0,2.86-1.72,4.75-4.35,4.78s-4.5-1.93-4.45-4.94c0-2.77,2-4.77,4.48-4.72S125.54,156.37,125.53,159.15Z" fill="#eae9ea" />
    <path
        d="M64.37,154.68c-2.43,0-4.85.06-7.28,0a4.43,4.43,0,0,1-4.65-4.52,4.39,4.39,0,0,1,4.45-4.47c5.11-.12,10.23-.13,15.35,0a4.46,4.46,0,0,1,4.43,4.51,4.58,4.58,0,0,1-4.76,4.47C69.39,154.74,66.88,154.68,64.37,154.68Z"
        fill="#ab0707" />
    <path
        d="M64.36,186.51c-2.33,0-4.67.06-7,0-3.08-.08-5-1.85-5-4.51s1.88-4.45,5-4.5c4.76-.07,9.52-.08,14.27,0,3,.06,4.93,2,4.85,4.64s-2,4.26-4.86,4.36C69.21,186.58,66.78,186.51,64.36,186.51Z"
        fill="#ab0707" />
    <path
        d="M84.36,166.32c0,2.43.07,4.86,0,7.29A4.35,4.35,0,0,1,80,178.13a4.28,4.28,0,0,1-4.53-4.35q-.23-7.69,0-15.39A4.27,4.27,0,0,1,79.92,154c2.6,0,4.29,1.85,4.44,4.75v7.56Z"
        fill="#ab0707" />
    <path
        d="M64.57,122.81c-2.52,0-5,.06-7.55,0a4.37,4.37,0,0,1-4.56-4.32A4.25,4.25,0,0,1,56.81,114q7.68-.16,15.36,0a4.37,4.37,0,0,1,4.49,4.41,4.6,4.6,0,0,1-4.54,4.42H64.57Z"
        fill="#aa0101" />
    <path
        d="M53.76,134.42c0,2.43.08,4.86,0,7.29-.12,2.88-2,4.75-4.52,4.7s-4.34-2-4.37-4.83q-.09-7.31,0-14.6c0-2.94,1.74-4.73,4.37-4.77s4.4,1.71,4.52,4.64C53.84,129.37,53.76,131.89,53.76,134.42Z"
        fill="#aa0101" />
    <path
        d="M84.42,134.27c0,2.52.06,5,0,7.57A4.46,4.46,0,0,1,80,146.41,4.34,4.34,0,0,1,75.55,142q-.18-7.69,0-15.4A4.24,4.24,0,0,1,80,122.21c2.53,0,4.23,1.77,4.4,4.49,0,.18,0,.36,0,.54v7Z"
        fill="#aa0101" />
    <path d="M44.78,166c0-2.52-.07-5,0-7.55a4.4,4.4,0,1,1,8.79,0q.12,7.68,0,15.36a4.21,4.21,0,0,1-4.25,4.3,4.32,4.32,0,0,1-4.54-4.31c0-.17,0-.35,0-.53V166Z"
        fill="#aa0101" />
    <path d="M177.65,68.71h21.08c3.46,0,5.57,1.72,5.59,4.48s-2.15,4.59-5.56,4.6q-21.07,0-42.16,0c-3.42,0-5.59-1.87-5.6-4.56s2.17-4.51,5.57-4.52Z" fill="#514f4b" />
    <path
        d="M64.56,77.8h-20a14.19,14.19,0,0,1-2.69-.15A4.57,4.57,0,0,1,38,72.9a4.45,4.45,0,0,1,4.52-4.16q22.17-.08,44.33,0a4.45,4.45,0,0,1,.72,8.85,12.69,12.69,0,0,1-2.69.2C78.08,77.81,71.32,77.8,64.56,77.8Z"
        fill="#514f4b" />
    <path
        d="M157.92,134.28c0-2.43,0-4.87,0-7.29.08-2.92,1.81-4.74,4.4-4.78s4.46,1.72,4.53,4.65q.18,7.42,0,14.85a4.49,4.49,0,0,1-4.53,4.71c-2.48,0-4.32-2-4.4-4.85C157.87,139.14,157.92,136.71,157.92,134.28Z"
        fill="#ab0707" />
    <path
        d="M197.44,166.23c0,2.44.05,4.87,0,7.3-.08,2.74-1.79,4.52-4.28,4.61a4.24,4.24,0,0,1-4.61-4.26c-.15-5.22-.16-10.46,0-15.68A4.18,4.18,0,0,1,193.2,154c2.52.11,4.15,1.84,4.22,4.64C197.49,161.19,197.44,163.71,197.44,166.23Z"
        fill="#ab0707" />
    <path d="M177.36,186.52c-2.33,0-4.67,0-7,0-3-.1-4.94-1.92-4.9-4.57s1.89-4.37,4.77-4.43q7.26-.13,14.54,0c2.86.06,4.76,1.93,4.8,4.43s-1.94,4.43-4.94,4.58h-7.27Z"
        fill="#ab0707" />
    <path
        d="M177.26,154.68c-2.34,0-4.68.06-7,0a4.56,4.56,0,0,1-4.72-4.53,4.48,4.48,0,0,1,4.51-4.46q7.56-.18,15.12,0a4.53,4.53,0,0,1,4.59,4.67c-.11,2.49-2.08,4.27-4.92,4.33C182.3,154.73,179.78,154.68,177.26,154.68Z"
        fill="#ab0707" />
    <path d="M188.67,134.22c0-2.51-.08-5,0-7.55a4.39,4.39,0,1,1,8.77,0q.13,7.68,0,15.37a4.38,4.38,0,1,1-8.75,0C188.59,139.44,188.67,136.83,188.67,134.22Z" fill="#aa0101" />
    <path
        d="M177.71,122.81c-2.53,0-5.05.06-7.57,0a4.46,4.46,0,0,1-4.6-4.35A4.33,4.33,0,0,1,170,114q7.71-.16,15.41,0a4.3,4.3,0,0,1,4.34,4.29,4.57,4.57,0,0,1-4.45,4.52,5,5,0,0,1-.55,0Z"
        fill="#aa0101" />
    <path
        d="M157.84,165.86c0-2.34,0-4.69,0-7,.07-3,1.71-4.76,4.32-4.82s4.5,1.66,4.55,4.57q.15,7.56,0,15.12a4.22,4.22,0,0,1-4.43,4.41,4.26,4.26,0,0,1-4.41-4.43c-.09-2.61,0-5.22,0-7.83Z"
        fill="#aa0101" />
</svg>