<svg data-name="Layer 1" id="Layer_1" viewBox="0 0 244.93 245.02" xmlns="http://www.w3.org/2000/svg">
    <path
        d="M52.53,171.51l-39.28,0C5.15,171.48,0,166.38,0,158.31V13.14C0,5.19,5.15,0,13,0H231.89c7.9,0,13,5.18,13,13.13q0,72.59,0,145.18c0,8.07-5.14,13.17-13.24,13.18l-39.29,0c-2-1.15-3.87-2.35-5.86-3.43-7.92-4.32-16.5-5.16-25.31-4.74l-30.57-.05q0-8.11,0-16.23c1.1,0,2.21-.07,3.31-.07h94.51V16.38H200c-.42,0-.84,0-1.27,0q-90,0-180,0c-.74,0-1.47.11-2.43.19v9.83q0,50.12.05,100.23V147h3.19q22.16,0,44.32,0l50.43.07q0,8.12,0,16.23l-31,.07c-7.32-.37-14.57.06-21.36,3.11C58.65,167.91,55.64,169.81,52.53,171.51Z"
        fill="#93a3ac" />
    <path
        d="M161.22,163.34c8.82-.42,17.4.42,25.32,4.74,2,1.08,3.91,2.28,5.86,3.43,3.29,3.84,7,7.38,9.78,11.56,9.32,14.14,7.5,34.73-3.64,47.41-8.87,10.1-20,15.05-33.31,14.41a39,39,0,0,1-28.3-13.63c-.84-.95-1.78-1.81-2.67-2.71a9.85,9.85,0,0,0-.69-1.63c-6.15-9.63-8.43-20-6-31.25a39.81,39.81,0,0,1,20.23-27.28C151.94,166.09,156.74,165,161.22,163.34Zm16.87,21.85a116.09,116.09,0,0,0-8.51-8.77c-.9-.77-3.6-.7-4.56.09a112.15,112.15,0,0,0-8.29,8.32l5.92,6,4.5-5.52,5.49,5.24ZM147.91,204.3c2.18-1.9,3.87-2.92,4.93-4.39,2-2.72-1.52-3.12-2.45-4.58-.57-.91-1.49-3-3.31-1.19-2.37,2.33-4.75,4.64-7,7.05a4,4,0,0,0,0,5.92c2.27,2.42,4.63,4.75,7,7a2,2,0,0,0,1.88.28c1.84-1.32,3.55-2.84,5.84-4.73Zm38.81,10.76c2.81-2.79,5.57-5.42,8.18-8.2a3.58,3.58,0,0,0,.2-5.11c-2.68-2.92-5.64-5.59-9.24-9.1-1.3,1.65-2.46,3.33-3.84,4.81-1,1.06-1,1.77,0,2.74,1.34,1.24,2.58,2.59,3.9,3.92l-5,5.21Zm-19.67,8c-1.36-1.55-2.51-3-3.85-4.29a2.2,2.2,0,0,0-2.07-.22c-1.79,1.26-3.43,2.74-5.06,4.09,3.44,3.6,6.11,6.67,9.1,9.4,1.54,1.41,3.57,1,5.09-.46,2.4-2.28,4.76-4.62,7-7.05a2.18,2.18,0,0,0,.25-2.07c-1.27-1.79-2.76-3.41-4.32-5.28Z"
        fill="#b2bdc3" />
    <path
        d="M52.53,171.51c3.11-1.7,6.12-3.6,9.34-5,6.79-3.05,14-3.48,21.36-3.11.13.11.24.3.38.32A37.73,37.73,0,0,1,107,176.21c11.11,12.43,14.18,26.53,8.48,42.29-1.26,3.48-3.21,6.7-4.84,10-3.77,3.38-7.22,7.24-11.38,10-14.64,9.83-35,8.18-48.23-3.44-10.28-9-15.05-20.41-14.2-33.9a38.77,38.77,0,0,1,13.8-27.7A24,24,0,0,0,52.53,171.51Zm33.3,57V212.19h16v-16.3H85.59V179.83H69.3v16.29H53.24v16.3H69.53v16.13Z"
        fill="#b2bdc3" />
    <path
        d="M110.67,228.54c1.63-3.34,3.58-6.56,4.84-10,5.7-15.76,2.63-29.86-8.48-42.29a37.73,37.73,0,0,0-23.42-12.53c-.14,0-.25-.21-.38-.32l31-.07h16.39l30.57.05c-4.49,1.65-9.29,2.75-13.41,5a39.81,39.81,0,0,0-20.23,27.28c-2.45,11.24-.17,21.62,6,31.25a9.85,9.85,0,0,1,.69,1.63Z"
        fill="#d0d7db" />
    <path
        d="M16.38,126.59q0-50.11-.05-100.23V16.53c1-.08,1.69-.19,2.43-.19q90,0,180,0c.43,0,.85,0,1.27,0q0,25.55-.07,51.08c-.72,0-1.75-.36-2.13,0-1.63,1.53-3.07,3.27-4.55,4.9,5.72,6.51,4.82,13.11.1,18.74,1.39,1.54,2.72,3.19,4.27,4.6.45.41,1.53.14,2.31.17,0,5.79-.23,11.58.13,17.34.46,7.38-6.13,13.49-13.36,13.47C130,126.5,73.17,126.59,16.38,126.59ZM159.22,49.08c-29.05,0-58.09-.1-87.14,0-5.4,0-10.78,5.58-10.81,11-.07,12.65,0,25.31,0,38,0,.59,0,1.19-.09,1.78-.84,9.43,6.06,14.81,14.43,14.65,19.36-.36,38.74-.11,58.11-.11,12.49,0,25,0,37.47,0,6.79,0,12.34-5.08,12.4-11.64q.21-21,0-42.06A12,12,0,0,0,172,49C167.72,48.92,163.47,49.06,159.22,49.08Zm-122,5.23C19.68,68.47,21,96.58,37.3,108.94l5.19-5.84C36,97.13,32.67,90,32.71,81.47s3.59-15.54,9.76-21.32Zm9.18,12.28c-9.18,7-9.09,24.13.07,30.07L51.64,91c-5.87-6.89-4.66-13.3,0-18.81Z"
        fill="#6aaaef" />
    <path
        d="M16.38,126.59c56.79,0,113.57-.09,170.36.08,7.23,0,13.82-6.09,13.36-13.47-.36-5.76-.11-11.55-.13-17.34,7.47-9.87,7.47-18.61,0-28.4q0-25.54.07-51.08h28.4V147H133.93c-1.1,0-2.21,0-3.31.07h-16.3L63.89,147q-22.17,0-44.32,0H16.38ZM202.56,60.05c13.08,15.68,13.08,26.22,0,43.28,1.72,1.89,3.46,3.79,5.18,5.69,17.21-14.23,16.38-41.57-.06-54.7Z"
        fill="#4595eb" />
    <path d="M114.32,147.06h16.3q0,8.12,0,16.23H114.27Q114.3,155.18,114.32,147.06Z" fill="#b2bdc3" />
    <path d="M178.09,185.19l-5.45,5.41-5.49-5.24-4.5,5.52-5.92-6a112.15,112.15,0,0,1,8.29-8.32c1-.79,3.66-.86,4.56-.09A116.09,116.09,0,0,1,178.09,185.19Z" fill="#d24b42" />
    <path
        d="M147.91,204.3l6.91,5.37c-2.29,1.89-4,3.41-5.84,4.73a2,2,0,0,1-1.88-.28c-2.42-2.26-4.78-4.59-7-7a4,4,0,0,1,0-5.92c2.27-2.41,4.65-4.72,7-7.05,1.82-1.79,2.74.28,3.31,1.19.93,1.46,4.41,1.86,2.45,4.58C151.78,201.38,150.09,202.4,147.91,204.3Z"
        fill="#f0c053" />
    <path
        d="M186.72,215.06,181,209.33l5-5.21c-1.32-1.33-2.56-2.68-3.9-3.92-1.05-1-1-1.68,0-2.74,1.38-1.48,2.54-3.16,3.84-4.81,3.6,3.51,6.56,6.18,9.24,9.1a3.58,3.58,0,0,1-.2,5.11C192.29,209.64,189.53,212.27,186.72,215.06Z"
        fill="#69ac5e" />
    <path
        d="M167.05,223l6.15-5.88c1.56,1.87,3.05,3.49,4.32,5.28a2.18,2.18,0,0,1-.25,2.07c-2.25,2.43-4.61,4.77-7,7.05-1.52,1.45-3.55,1.87-5.09.46-3-2.73-5.66-5.8-9.1-9.4,1.63-1.35,3.27-2.83,5.06-4.09a2.2,2.2,0,0,1,2.07.22C164.54,220,165.69,221.48,167.05,223Z"
        fill="#4897ea" />
    <path d="M85.83,228.55H69.53V212.42H53.24v-16.3H69.3V179.83H85.59v16.06h16.29v16.3h-16Z" fill="#4595eb" />
    <path
        d="M61.32,98c0-12.66-.12-25.32,0-38,0-5.41,5.41-11,10.81-11,29.05-.07,58.09,0,87.14,0q0,6,0,12.08c-.68,0-1.35.08-2,.08-5.18,0-6.15,1-6.16,6.28q0,15-.07,30L135.71,98c1.94-3,4-5.92,5.76-9a9.82,9.82,0,0,0,1.35-4.48c.14-6.88.06-13.77.05-20.65,0-.82-.07-1.63-.12-2.47h-8c0,6.39-.29,12.68.1,18.92.27,4.21-1.86,7-4.17,10.14-2.42-3.24-4.49-6.1-4.2-10.4.43-6.15.11-12.36.11-18.62H118.4c0,8.32,0,16.47.06,24.62a5.91,5.91,0,0,0,1.16,2.75c1.94,3.09,3.95,6.13,5.94,9.19L110.3,98V61.44H102V98H94l-.22-4.16H81.63V61.44H73.4V98Z"
        fill="#dc6d65" />
    <path
        d="M159.23,61.16q0-6,0-12.08c4.25,0,8.5-.16,12.74,0a12,12,0,0,1,11.68,11.58q.21,21,0,42.06c-.06,6.56-5.61,11.62-12.4,11.64-12.49,0-25,0-37.47,0-19.37,0-38.75-.25-58.11.11-8.37.16-15.27-5.22-14.43-14.65.05-.59.06-1.19.09-1.78H73.4c.32,2.14,1.4,3.88,3.63,4,5.56.18,11.14.06,16.94.06V98h8l.21,3.9h8.12V98l15.26,0c3.55,5.42,6.41,5.69,10.15,0L151,97.5c.11,2.28,1.06,4.31,3.39,4.42,5.65.25,11.31.08,16.89.08V93.81H159.38V85.63h11.94v-8.1H159.39V69.35H171.3V61.16Z"
        fill="#d3483f" />
    <path d="M37.23,54.31l5.24,5.84C36.3,65.93,32.74,73,32.71,81.47S36,97.13,42.49,103.1l-5.19,5.84C21,96.58,19.68,68.47,37.23,54.31Z" fill="#f4f3f3" />
    <path d="M46.41,66.59l5.18,5.62C47,77.72,45.77,84.13,51.64,91l-5.16,5.64C37.32,90.72,37.23,73.54,46.41,66.59Z" fill="#f4f3f3" />
    <path
        d="M200,67.46c7.47,9.79,7.47,18.53,0,28.4-.78,0-1.86.24-2.31-.17-1.55-1.41-2.88-3.06-4.27-4.6,4.72-5.63,5.62-12.23-.1-18.74,1.48-1.63,2.92-3.37,4.55-4.9C198.22,67.1,199.25,67.44,200,67.46Z"
        fill="#f4f3f3" />
    <path d="M202.56,60.05l5.16-5.73c16.44,13.13,17.27,40.47.06,54.7-1.72-1.9-3.46-3.8-5.18-5.69C215.64,86.27,215.64,75.73,202.56,60.05Z" fill="#f4f3f3" />
    <path
        d="M135.71,98c-3.74,5.69-6.6,5.42-10.15,0-2-3.06-4-6.1-5.94-9.19A5.91,5.91,0,0,1,118.46,86c-.1-8.15-.06-16.3-.06-24.62h8.15c0,6.26.32,12.47-.11,18.62-.29,4.3,1.78,7.16,4.2,10.4,2.31-3.17,4.44-5.93,4.17-10.14-.39-6.24-.1-12.53-.1-18.92h8c.05.84.12,1.65.12,2.47,0,6.88.09,13.77-.05,20.65A9.82,9.82,0,0,1,141.47,89C139.7,92.06,137.65,95,135.71,98Z"
        fill="#f4f3f3" />
    <path
        d="M159.23,61.16H171.3v8.19H159.39v8.18h11.93v8.1H159.38v8.18h11.87V102c-5.58,0-11.24.17-16.89-.08-2.33-.11-3.28-2.14-3.39-4.42q0-15,.07-30c0-5.25,1-6.25,6.16-6.28C157.88,61.24,158.55,61.19,159.23,61.16Z"
        fill="#f4f3f3" />
    <path d="M94,98v4c-5.8,0-11.38.12-16.94-.06-2.23-.07-3.31-1.81-3.63-4V61.44h8.23V93.86H93.75Z" fill="#f4f3f3" />
    <path d="M110.3,98v3.9h-8.12L102,98V61.44h8.33Z" fill="#f4f3f3" />
</svg>