<svg data-name="Layer 1" id="Layer_1" viewBox="0 0 240.88 231.77" xmlns="http://www.w3.org/2000/svg">
    <path
        d="M65.85,162.86c4.71,0,9.42.23,14.11,0,12.36-.5,20.08,8.33,21.62,18.17,2,12.77,3.57,25.61,5.08,38.44.91,7.81-6.09,13.53-14.35,12-4.92-.9-8.62-3.38-10.85-8-2.8-5.86-5.83-11.61-8.71-17.44a2.51,2.51,0,0,0-2.61-1.72q-16.71.1-33.4,0a2.53,2.53,0,0,0-2.62,1.73q-4.48,8.91-9.07,17.78a14.6,14.6,0,0,1-18.22,6.89c-3.61-1.36-5.33-4.3-6.83-7.51v-5.65c.62-3.65,1.33-7.28,1.84-10.94C3,198.25,4,189.85,5.18,181.49c1.36-9.48,8.71-19,21.44-18.58,4.77.15,9.55,0,14.33,0Zm15.78,17.75c-2.28.53-5.71-.85-5.74,2.93s3.54,2.49,5.79,3.05c.45,2.22-.86,5.68,2.77,5.77,3.89.09,2.59-3.64,3.18-5.81,2.24-.46,5.44.84,5.62-2.78.21-4.26-3.65-2.42-5.67-3.22-.42-4.68-1-5.92-3-5.75C80.81,175.14,82.15,178.31,81.63,180.61Zm-26,15.56c3.13,0,6.26,0,9.39,0,1.85,0,3.24-.63,3.3-2.78.06-1.92-1-2.86-3.4-2.88q-9.15,0-18.3,0c-2.42,0-3.48.94-3.42,2.87.06,2.3,1.61,2.8,3.52,2.8ZM46.3,177.28c1.13-.05,1.83-.1,2.54-.11a2.53,2.53,0,0,0,2.72-2.63,2.51,2.51,0,0,0-2.42-2.92,18.22,18.22,0,0,0-5.58.32,3.47,3.47,0,0,0-1.9,2.65c0,.8,1.16,1.88,2.06,2.37A6.48,6.48,0,0,0,46.3,177.28Zm18.45,0c1.19-.06,2-.08,2.75-.13,1.6-.09,2.69-1.11,2.48-2.52-.16-1.07-1.19-2.67-2.07-2.84a15.23,15.23,0,0,0-6,.19,3.17,3.17,0,0,0-1.73,2.53,3.9,3.9,0,0,0,2,2.44A6.35,6.35,0,0,0,64.75,177.28ZM22.63,190.41h0a20.18,20.18,0,0,0,0,2.58c.19,1.54,1,2.67,2.68,2.71a2.56,2.56,0,0,0,2.79-2.56,24.41,24.41,0,0,0,0-4.91A2.46,2.46,0,0,0,25.37,186a2.54,2.54,0,0,0-2.73,2.34A14.71,14.71,0,0,0,22.63,190.41Zm0-14.17a18.26,18.26,0,0,0,0,2.34c.21,1.52.9,2.66,2.66,2.71s2.69-1.12,2.86-2.75a26.33,26.33,0,0,0,0-4.44,2.27,2.27,0,0,0-2.65-2.33A5.68,5.68,0,0,0,22.71,174C22.33,174.43,22.64,175.46,22.63,176.24Zm-4.14,4.56c-.71,0-1.41,0-2.11,0-1.67.1-2.86.8-2.93,2.66s1.1,2.72,2.74,2.87a11.23,11.23,0,0,0,4.63-.12,4.14,4.14,0,0,0,2.13-2.8c.27-1.42-.78-2.46-2.36-2.6C19.9,180.75,19.19,180.81,18.49,180.8Zm13.88,5.74c1.25-.11,2.34.12,2.9-.32a4.55,4.55,0,0,0,1.86-2.77A3.12,3.12,0,0,0,35.3,181a13.78,13.78,0,0,0-5.54.06,3.22,3.22,0,0,0-1.89,2.42A3.62,3.62,0,0,0,29.59,186,7.12,7.12,0,0,0,32.37,186.54Z"
        fill="#1b5d85" />
    <path
        d="M200.07,162.86c4.71,0,9.42.23,14.11,0,12-.46,19.92,7.85,21.56,18.24,2,12.77,3.54,25.61,5.06,38.45.89,7.44-5.44,12.94-13.52,12-5.23-.62-9.24-3.09-11.63-8-3.12-6.4-6.38-12.74-9.64-19.21H181.08c-3.37,0-6.75.07-10.11,0A2.49,2.49,0,0,0,168.3,206c-2.93,6-5.94,11.91-9,17.84a14.57,14.57,0,0,1-16.64,7.47,10.73,10.73,0,0,1-8.36-11.94q2.37-18.9,5-37.76c1.29-9.22,8.48-19.25,21.9-18.68,4.62.2,9.25,0,13.88,0Zm-46.73,17.77c-2.26.51-5.52-.88-5.59,2.83-.07,3.95,3.44,2.6,5.61,3.09.36,2.35-.75,5.73,2.84,5.8,4,.09,2.5-3.68,3.07-5.84,4.7-.25,6-.84,5.83-2.91-.3-3.92-3.63-2.43-5.87-3-.45-2.27.87-5.81-3-5.74C152.53,174.94,153.78,178.34,153.34,180.63Zm31.91,15.54c3.05,0,6.1,0,9.15,0,1.84,0,3.27-.61,3.33-2.77.06-1.89-1.06-2.87-3.43-2.89-6,0-12.05,0-18.08,0-1.92,0-3.46.45-3.54,2.76-.06,2,1,2.88,3.65,2.91C179.3,196.2,182.27,196.17,185.25,196.17Zm8.91-18.89c1-.05,1.75-.1,2.45-.11a2.58,2.58,0,0,0,2.79-2.81,2.54,2.54,0,0,0-2.6-2.77,17.52,17.52,0,0,0-5.33.34,3.4,3.4,0,0,0-2,2.59c0,.88,1.29,1.9,2.24,2.46A5.58,5.58,0,0,0,194.16,177.28Zm-18.49,0,2.49-.11a2.51,2.51,0,0,0,2.7-2.62c.08-1.66-.74-2.82-2.39-2.92a17.43,17.43,0,0,0-5.55.32,3.41,3.41,0,0,0-1.89,2.63c0,.8,1.13,1.88,2,2.36A6.44,6.44,0,0,0,175.67,177.28Zm42.75,13.5c0-.62,0-1.25,0-1.87,0-1.88-1-3-2.89-2.93s-2.68,1.06-2.75,2.82c0,1.17-.05,2.34,0,3.51.08,1.79.64,3.34,2.76,3.38s2.75-1.45,2.87-3.27C218.45,191.88,218.42,191.33,218.42,190.78Zm.15-14.51h-.19c0-.79.3-1.77-.07-2.3-.64-.91-1.62-2-2.58-2.15s-2.53.91-2.64,1.61a19,19,0,0,0,.16,6.2c.13.69,1.6,1.57,2.43,1.55a3.5,3.5,0,0,0,2.38-1.72A9.73,9.73,0,0,0,218.57,176.27Zm-9.81,4.53h0c-.78,0-1.57-.05-2.34,0-1.58.13-2.68.82-2.78,2.57a2.52,2.52,0,0,0,2.42,2.89,21.62,21.62,0,0,0,4.89,0,2.79,2.79,0,0,0-.32-5.52C210,180.77,209.38,180.8,208.76,180.8Zm13.8,5.74c1.25-.11,2.34.12,2.9-.32a4.57,4.57,0,0,0,1.86-2.78,3.17,3.17,0,0,0-1.84-2.46,14,14,0,0,0-5.54.07,3.24,3.24,0,0,0-1.89,2.43,3.62,3.62,0,0,0,1.73,2.54A7,7,0,0,0,222.56,186.54Z"
        fill="#1b5d85" />
    <path
        d="M152,61.31c-3,3.18-5.75,6.55-9,9.46-2.21,2-5,3.39-7.51,5-1,.29-2.08.63-3.14.84a102.75,102.75,0,0,1-10.49,1.93c-5.78.53-11.26-1-16.56-3.21a39.37,39.37,0,0,1-16-13.85c-.9-1.81-1.79-3.63-2.69-5.44a38,38,0,0,1-2.91-14.88q0-12.83,0-25.65c0-1.57,0-3.15,0-4.73,0-2.51,0-5,0-7.52S84.65,0,87,0h67c2.46,0,3.19.77,3.22,3.25s0,5,0,7.52v4.83c-.73,13.63,2,27.48-2.71,40.83Zm-45.63-8.57c-.09,3,1.36,4.07,4,2.92s5.59-2.47,8.26-3.92a3.86,3.86,0,0,1,3.95,0c2.45,1.23,4.86,2.57,7.39,3.61,1.11.45,2.77.72,3.66.2.71-.41,1-2.19.86-3.32-.25-2.86-.95-5.67-1.19-8.53a4.65,4.65,0,0,1,1.06-3.09c2.11-2.51,4.47-4.8,6.66-7.25,1.75-1.94,1.25-3.69-1.27-4.33a58.46,58.46,0,0,0-6.42-1.19c-3.2-.42-5.92-1.14-7.14-4.8a32.42,32.42,0,0,0-3.75-6.74c-1.13-1.79-3-1.71-4,.11-1.7,3-3.28,6.06-5,9a3.61,3.61,0,0,1-2.05,1.53c-3.11.72-6.28,1.14-9.37,1.91a4.55,4.55,0,0,0-2.82,2c-.3.66.48,2.1,1.14,2.89q3,3.48,6.22,6.7a3.8,3.8,0,0,1,1.09,3.79C107.11,47.09,106.78,50,106.39,52.74Z"
        fill="#f8c761" />
    <path
        d="M80.85,111.73q0-6.81.08-13.62c0-4,1.62-5.66,5.72-5.68,3.91,0,7.83,0,11.74,0,0,8.39,0,16.79,0,25.18,0,2.83.54,3.37,3.22,3.37q18.94,0,37.88,0c2.73,0,3.14-.41,3.14-3.14q0-12.7,0-25.41c4.15,0,8.31-.1,12.46,0,3.31,0,5,1.82,5.12,5.13.1,4.7.11,9.41.16,14.11,0,2,0,4,0,6q0,6.64-.11,13.3a9.72,9.72,0,0,1-1.6.27l-77.69,0q-.06-6.8-.11-13.58Z"
        fill="#204959" />
    <path
        d="M81,131.18l77.69,0a9.72,9.72,0,0,0,1.6-.27c1.41.11,2.81.29,4.22.32,1.84,0,2.75.87,2.74,2.73,0,2.9,0,5.8,0,8.71,0,1.9-1,2.69-2.73,2.77-.55,0-1.1,0-1.65,0H78.13c-3.9,0-4.25-.35-4.25-4.32,0-2.43,0-4.87,0-7.3a2.29,2.29,0,0,1,2.61-2.59C78,131.27,79.47,131.21,81,131.18Z"
        fill="#f8c761" />
    <path d="M142.63,92.48q0,12.7,0,25.41c0,2.73-.41,3.14-3.14,3.14q-18.95,0-37.88,0c-2.68,0-3.22-.54-3.22-3.37,0-8.39,0-16.79,0-25.18l7-.23h30.25Z" fill="#1e404e" />
    <path d="M135.63,92.25H105.38q0-8.43,0-16.87c5.3,2.21,10.78,3.74,16.56,3.21a102.75,102.75,0,0,0,10.49-1.93c1.06-.21,2.1-.55,3.14-.84Q135.61,84,135.63,92.25Z"
        fill="#f2a656" />
    <path
        d="M160.36,117.65c0-2,0-4,0-6l26.08,0c3.57,0,4.58,1,4.54,4.66q-.21,19-.45,38.06h-5.95c.17-11.44.3-22.87.54-34.31,0-1.9-.42-2.58-2.44-2.55C175.25,117.69,167.81,117.64,160.36,117.65Z"
        fill="#f8c965" />
    <path d="M80.85,111.73v5.87c-7.51,0-15,.05-22.53,0-1.73,0-2.48.32-2.45,2.3.16,11.5.17,23,.24,34.51l-5.71,0q-.19-18.78-.38-37.55c0-4.25.85-5.15,5-5.15Z"
        fill="#f8c965" />
    <path
        d="M83.78,10.83c0,1.58,0,3.16,0,4.73-4.46,0-8.92,0-13.38,0-2.7,0-3.65,1-3.66,3.69,0,4.46,0,8.92,0,13.38a22.88,22.88,0,0,0,5,14.34c3.82,4.86,8.53,8.45,15,9.13.9,1.81,1.79,3.63,2.69,5.44a30,30,0,0,1-27.66-30c0-4,0-8,0-12,0-5.48,3.2-8.64,8.61-8.66Z"
        fill="#f2a85b" />
    <path
        d="M157.25,15.61V10.78c4.62,0,9.24,0,13.85.08s7.85,2.54,8,6.94c.17,6.93.41,14-.82,20.78C175.93,51.25,164.1,61,152,61.31l2.52-4.87c10.07-2.66,17.12-8.78,19.13-19.08,1.2-6.13.74-12.61.78-18.93,0-1.79-1.37-2.9-3.35-2.89Z"
        fill="#f2a85b" />
    <path d="M184.59,154.43h5.95c2.69-.07,5.28.14,7.31,2.26a7.89,7.89,0,0,1,2.22,6.16h-25C175.19,157.05,177.89,154.65,184.59,154.43Z" fill="#f1556f" />
    <path d="M50.4,154.42l5.71,0a25.49,25.49,0,0,1,3.92.31c3.68.83,5.67,3.71,5.82,8.16H41C41,157.1,43.75,154.68,50.4,154.42Z" fill="#f1566f" />
    <path
        d="M81.63,180.61c.52-2.3-.82-5.47,2.94-5.81,2-.17,2.59,1.07,3,5.75,2,.8,5.88-1,5.67,3.22-.18,3.62-3.38,2.32-5.62,2.78-.59,2.17.71,5.9-3.18,5.81-3.63-.09-2.32-3.55-2.77-5.77-2.25-.56-5.81.82-5.79-3.05S79.35,181.14,81.63,180.61Z"
        fill="#fefdfc" />
    <path
        d="M55.64,196.17H46.73c-1.91,0-3.46-.5-3.52-2.8-.06-1.93,1-2.85,3.42-2.87q9.15,0,18.3,0c2.4,0,3.46,1,3.4,2.88-.06,2.15-1.45,2.77-3.3,2.78C61.9,196.18,58.77,196.17,55.64,196.17Z"
        fill="#fefdfc" />
    <path
        d="M46.3,177.28a6.48,6.48,0,0,1-2.58-.32c-.9-.49-2.08-1.57-2.06-2.37a3.47,3.47,0,0,1,1.9-2.65,18.22,18.22,0,0,1,5.58-.32,2.51,2.51,0,0,1,2.42,2.92,2.53,2.53,0,0,1-2.72,2.63C48.13,177.18,47.43,177.23,46.3,177.28Z"
        fill="#fefdfc" />
    <path
        d="M64.75,177.28a6.35,6.35,0,0,1-2.6-.33,3.9,3.9,0,0,1-2-2.44A3.17,3.17,0,0,1,61.9,172a15.23,15.23,0,0,1,6-.19c.88.17,1.91,1.77,2.07,2.84.21,1.41-.88,2.43-2.48,2.52C66.72,177.2,65.94,177.22,64.75,177.28Z"
        fill="#fefdfc" />
    <path
        d="M22.63,190.41a14.71,14.71,0,0,1,0-2.1A2.54,2.54,0,0,1,25.37,186a2.46,2.46,0,0,1,2.79,2.26,24.41,24.41,0,0,1,0,4.91,2.56,2.56,0,0,1-2.79,2.56c-1.72,0-2.49-1.17-2.68-2.71a20.18,20.18,0,0,1,0-2.58Z"
        fill="#fefdfc" />
    <path
        d="M22.64,176.24c0-.78-.31-1.81.07-2.29a5.68,5.68,0,0,1,2.83-2.18,2.27,2.27,0,0,1,2.65,2.33,26.33,26.33,0,0,1,0,4.44c-.17,1.63-1,2.8-2.86,2.75s-2.45-1.19-2.66-2.71A16.61,16.61,0,0,1,22.64,176.24Z"
        fill="#fefdfc" />
    <path
        d="M18.49,180.8c.7,0,1.41-.05,2.1,0,1.58.14,2.63,1.18,2.36,2.6a4.14,4.14,0,0,1-2.13,2.8,11.23,11.23,0,0,1-4.63.12c-1.64-.15-2.81-1-2.74-2.87s1.26-2.56,2.93-2.66C17.08,180.76,17.78,180.8,18.49,180.8Z"
        fill="#fefdfc" />
    <path
        d="M32.37,186.54a7.12,7.12,0,0,1-2.78-.52,3.62,3.62,0,0,1-1.72-2.55,3.22,3.22,0,0,1,1.89-2.42A13.78,13.78,0,0,1,35.3,181a3.12,3.12,0,0,1,1.83,2.46,4.55,4.55,0,0,1-1.86,2.77C34.71,186.66,33.62,186.43,32.37,186.54Z"
        fill="#fefdfc" />
    <path
        d="M153.34,180.63c.44-2.29-.81-5.69,2.88-5.75,3.88-.07,2.56,3.47,3,5.74,2.24.55,5.57-.94,5.87,3,.16,2.07-1.13,2.66-5.83,2.91-.57,2.16.88,5.93-3.07,5.84-3.59-.07-2.48-3.45-2.84-5.8-2.17-.49-5.68.86-5.61-3.09C147.82,179.75,151.08,181.14,153.34,180.63Z"
        fill="#fefdfc" />
    <path
        d="M185.25,196.17c-3,0-5.95,0-8.92,0-2.62,0-3.71-.92-3.65-2.91.08-2.31,1.62-2.77,3.54-2.76,6,0,12.05,0,18.08,0,2.37,0,3.49,1,3.43,2.89-.06,2.16-1.49,2.76-3.33,2.77C191.35,196.19,188.3,196.17,185.25,196.17Z"
        fill="#fefdfc" />
    <path
        d="M194.16,177.28a5.58,5.58,0,0,1-2.43-.3c-.95-.56-2.19-1.58-2.24-2.46a3.4,3.4,0,0,1,2-2.59,17.52,17.52,0,0,1,5.33-.34,2.54,2.54,0,0,1,2.6,2.77,2.58,2.58,0,0,1-2.79,2.81C195.91,177.18,195.2,177.23,194.16,177.28Z"
        fill="#fefdfc" />
    <path
        d="M175.67,177.28a6.44,6.44,0,0,1-2.62-.34c-.89-.48-2-1.56-2-2.36a3.41,3.41,0,0,1,1.89-2.63,17.43,17.43,0,0,1,5.55-.32c1.65.1,2.47,1.26,2.39,2.92a2.51,2.51,0,0,1-2.7,2.62Z"
        fill="#fefdfc" />
    <path
        d="M218.42,190.78c0,.55,0,1.1,0,1.64-.12,1.82-.75,3.3-2.87,3.27s-2.68-1.59-2.76-3.38c-.05-1.17,0-2.34,0-3.51.07-1.76.95-2.8,2.75-2.82s2.84,1.05,2.89,2.93C218.43,189.53,218.42,190.16,218.42,190.78Z"
        fill="#fefdfc" />
    <path
        d="M218.57,176.27a9.73,9.73,0,0,1-.51,3.18,3.5,3.5,0,0,1-2.38,1.72c-.83,0-2.3-.86-2.43-1.55a19,19,0,0,1-.16-6.2c.11-.7,1.8-1.72,2.64-1.61s1.94,1.24,2.58,2.15c.37.53.07,1.51.07,2.3Z"
        fill="#fefdfc" />
    <path d="M208.76,180.8c.62,0,1.25,0,1.87,0a2.79,2.79,0,0,1,.32,5.52,21.62,21.62,0,0,1-4.89,0,2.52,2.52,0,0,1-2.42-2.89c.1-1.75,1.2-2.44,2.78-2.57.77-.06,1.56,0,2.34,0Z"
        fill="#fefdfc" />
    <path
        d="M222.56,186.54a7,7,0,0,1-2.78-.52,3.62,3.62,0,0,1-1.73-2.54,3.24,3.24,0,0,1,1.89-2.43,14,14,0,0,1,5.54-.07,3.17,3.17,0,0,1,1.84,2.46,4.57,4.57,0,0,1-1.86,2.78C224.9,186.66,223.81,186.43,222.56,186.54Z"
        fill="#fefdfc" />
    <path
        d="M106.39,52.74c.39-2.71.72-5.65,1.25-8.56a3.8,3.8,0,0,0-1.09-3.79q-3.26-3.21-6.22-6.7c-.66-.79-1.44-2.23-1.14-2.89a4.55,4.55,0,0,1,2.82-2c3.09-.77,6.26-1.19,9.37-1.91a3.61,3.61,0,0,0,2.05-1.53c1.75-2.95,3.33-6,5-9,1-1.82,2.9-1.9,4-.11A32.42,32.42,0,0,1,126.24,23c1.22,3.66,3.94,4.38,7.14,4.8A58.46,58.46,0,0,1,139.8,29c2.52.64,3,2.39,1.27,4.33-2.19,2.45-4.55,4.74-6.66,7.25a4.65,4.65,0,0,0-1.06,3.09c.24,2.86.94,5.67,1.19,8.53.1,1.13-.15,2.91-.86,3.32-.89.52-2.55.25-3.66-.2-2.53-1-4.94-2.38-7.39-3.61a3.86,3.86,0,0,0-3.95,0c-2.67,1.45-5.46,2.71-8.26,3.92S106.3,55.78,106.39,52.74Z"
        fill="#f2a656" />
</svg>